<svg width="18" height="18" viewBox="0 0 18 18" fill="none" xmlns="http://www.w3.org/2000/svg">
<path d="M14.3279 4.4663C14.4047 4.38796 14.4963 4.32573 14.5975 4.28324C14.6986 4.24076 14.8072 4.21887 14.9169 4.21887C15.0265 4.21887 15.1351 4.24076 15.2363 4.28324C15.3374 4.32573 15.429 4.38796 15.5058 4.4663C15.8275 4.79142 15.832 5.3168 15.517 5.64755L8.86492 13.5113C8.78939 13.5942 8.69774 13.6609 8.59557 13.7072C8.49339 13.7535 8.38285 13.7784 8.2707 13.7806C8.15855 13.7827 8.04714 13.7619 7.94331 13.7194C7.83947 13.677 7.74538 13.6138 7.66679 13.5338L3.61904 9.43205C3.46293 9.27284 3.37549 9.05877 3.37549 8.8358C3.37549 8.61283 3.46293 8.39875 3.61904 8.23955C3.69582 8.16121 3.78745 8.09898 3.88858 8.05649C3.9897 8.01401 4.09829 7.99212 4.20798 7.99212C4.31767 7.99212 4.42625 8.01401 4.52738 8.05649C4.62851 8.09898 4.72014 8.16121 4.79692 8.23955L8.23042 11.7192L14.3054 4.49105C14.3124 4.48235 14.3199 4.47409 14.3279 4.4663Z" fill="#676767"/>
</svg>
