<?xml version="1.0" encoding="UTF-8"?>
<svg xmlns="http://www.w3.org/2000/svg" width="117" height="44" viewBox="0 0 117 44" fill="none">
  <path d="M10.3112 7.35132L2 15.6625" stroke="#BA8D46" stroke-width="4.45674"></path>
  <path d="M15.9725 13.2532L3.50568 25.72L8.80559 31.0199L14.1055 25.72L9.16694 20.7815" stroke="#17494D" stroke-width="4.45674"></path>
  <path d="M34.9232 30.3233C33.8097 30.3233 32.8129 30.1527 31.9328 29.8114C31.0528 29.4522 30.3074 28.9493 29.6967 28.3027C29.1041 27.6382 28.6461 26.8479 28.3228 25.932C28.0174 25.016 27.8648 23.9922 27.8648 22.8607C27.8648 21.5496 28.0623 20.3104 28.4575 19.1429C28.8706 17.9575 29.3914 16.8709 30.02 15.8831C30.6666 14.8773 31.385 13.9793 32.1753 13.1891C32.9835 12.3988 33.7917 11.7343 34.5999 11.1955H40.1766C39.0272 12.0216 37.9945 12.8119 37.0785 13.5662C36.1625 14.3026 35.3633 15.048 34.6808 15.8023C34.0162 16.5566 33.4594 17.3289 33.0104 18.1192C32.5794 18.8915 32.2741 19.7266 32.0945 20.6247L32.3369 20.7055C32.4986 20.3463 32.6872 19.9961 32.9027 19.6548C33.1362 19.3136 33.4145 19.0172 33.7378 18.7658C34.0791 18.4964 34.4742 18.2808 34.9232 18.1192C35.3722 17.9575 35.8931 17.8767 36.4858 17.8767C37.2581 17.8767 37.9765 18.0204 38.641 18.3078C39.3235 18.5772 39.9072 18.9633 40.3922 19.4662C40.8951 19.9691 41.2812 20.5887 41.5506 21.3251C41.838 22.0435 41.9817 22.8428 41.9817 23.7228C41.9817 24.6927 41.811 25.5817 41.4698 26.39C41.1465 27.1982 40.6706 27.8986 40.0419 28.4913C39.4313 29.0661 38.6949 29.5151 37.8328 29.8384C36.9707 30.1616 36.0008 30.3233 34.9232 30.3233ZM34.9232 27.1712C35.8212 27.1712 36.5217 26.9288 37.0246 26.4438C37.5275 25.9409 37.7789 25.2315 37.7789 24.3155V23.8306C37.7789 22.9146 37.5275 22.2142 37.0246 21.7292C36.5217 21.2263 35.8212 20.9749 34.9232 20.9749C34.0252 20.9749 33.3247 21.2263 32.8219 21.7292C32.319 22.2142 32.0675 22.9146 32.0675 23.8306V24.3155C32.0675 25.2315 32.319 25.9409 32.8219 26.4438C33.3247 26.9288 34.0252 27.1712 34.9232 27.1712ZM49.5415 30.3233C48.1765 30.3233 47.027 30.1078 46.0931 29.6767C45.1591 29.2277 44.324 28.5991 43.5876 27.7909L45.9314 25.4201C46.4343 25.9769 46.9911 26.4169 47.6017 26.7402C48.2124 27.0635 48.9039 27.2251 49.6762 27.2251C50.4664 27.2251 51.0142 27.1084 51.3195 26.8749C51.6249 26.6234 51.7775 26.2912 51.7775 25.8781C51.7775 25.2136 51.3016 24.8184 50.3497 24.6927L48.8141 24.5041C45.6351 24.109 44.0456 22.6542 44.0456 20.1397C44.0456 19.4572 44.1713 18.8376 44.4227 18.2808C44.6921 17.7061 45.0603 17.2212 45.5273 16.826C46.0122 16.413 46.587 16.0986 47.2515 15.8831C47.934 15.6496 48.6973 15.5329 49.5415 15.5329C50.2778 15.5329 50.9244 15.5868 51.4812 15.6945C52.0559 15.7843 52.5588 15.928 52.9899 16.1256C53.4389 16.3052 53.843 16.5387 54.2022 16.826C54.5793 17.0954 54.9475 17.4008 55.3067 17.742L53.0168 20.0859C52.5678 19.6368 52.0559 19.2866 51.4812 19.0352C50.9244 18.7658 50.3497 18.6311 49.757 18.6311C49.0745 18.6311 48.5896 18.7388 48.3022 18.9543C48.0148 19.1699 47.8711 19.4572 47.8711 19.8164C47.8711 20.1936 47.9699 20.49 48.1675 20.7055C48.383 20.9031 48.7781 21.0467 49.3529 21.1365L50.9424 21.3521C54.0495 21.7652 55.6031 23.184 55.6031 25.6087C55.6031 26.2912 55.4594 26.9198 55.172 27.4945C54.8847 28.0693 54.4716 28.5721 53.9328 29.0032C53.4119 29.4163 52.7743 29.7396 52.02 29.9731C51.2836 30.2065 50.4574 30.3233 49.5415 30.3233ZM64.2216 30.3233C63.1439 30.3233 62.1831 30.1527 61.3389 29.8114C60.4948 29.4522 59.7764 28.9583 59.1837 28.3297C58.6089 27.6831 58.1689 26.9018 57.8636 25.9858C57.5762 25.0699 57.4325 24.0461 57.4325 22.9146C57.4325 21.8011 57.5762 20.7953 57.8636 19.8973C58.1509 18.9813 58.573 18.2 59.1298 17.5534C59.7045 16.9069 60.405 16.413 61.2312 16.0717C62.0573 15.7125 63.0003 15.5329 64.0599 15.5329C65.2273 15.5329 66.2241 15.7305 67.0503 16.1256C67.8945 16.5207 68.577 17.0505 69.0978 17.7151C69.6366 18.3796 70.0228 19.1519 70.2563 20.032C70.5077 20.8941 70.6334 21.8011 70.6334 22.753V23.9384H61.5544V24.1539C61.5544 25.0878 61.8059 25.8332 62.3088 26.39C62.8117 26.9288 63.6019 27.1982 64.6796 27.1982C65.5057 27.1982 66.1792 27.0365 66.7001 26.7132C67.221 26.372 67.7059 25.9679 68.1549 25.5009L70.1485 27.9795C69.5199 28.7158 68.6937 29.2906 67.67 29.7037C66.6642 30.1167 65.5147 30.3233 64.2216 30.3233ZM64.1407 18.4694C63.3325 18.4694 62.6949 18.7388 62.228 19.2776C61.7789 19.7985 61.5544 20.4989 61.5544 21.379V21.5945H66.5115V21.3521C66.5115 20.49 66.314 19.7985 65.9188 19.2776C65.5417 18.7388 64.949 18.4694 64.1407 18.4694ZM73.4494 30V15.8562H77.4366V18.2539H77.5982C77.8497 17.5175 78.2897 16.8799 78.9183 16.3411C79.5469 15.8023 80.418 15.5329 81.5315 15.5329C82.9863 15.5329 84.0819 16.0178 84.8183 16.9877C85.5726 17.9575 85.9498 19.3405 85.9498 21.1365V30H81.9626V21.4598C81.9626 20.5438 81.8189 19.8703 81.5315 19.4393C81.2442 18.9903 80.7323 18.7658 79.9959 18.7658C79.6726 18.7658 79.3583 18.8107 79.053 18.9005C78.7477 18.9723 78.4693 19.098 78.2178 19.2776C77.9844 19.4572 77.7958 19.6817 77.6521 19.9512C77.5084 20.2026 77.4366 20.4989 77.4366 20.8402V30H73.4494ZM94.2934 30.3233C92.9284 30.3233 91.7789 30.1078 90.845 29.6767C89.911 29.2277 89.0759 28.5991 88.3395 27.7909L90.6833 25.4201C91.1862 25.9769 91.743 26.4169 92.3537 26.7402C92.9643 27.0635 93.6558 27.2251 94.4281 27.2251C95.2183 27.2251 95.7661 27.1084 96.0715 26.8749C96.3768 26.6234 96.5295 26.2912 96.5295 25.8781C96.5295 25.2136 96.0535 24.8184 95.1016 24.6927L93.566 24.5041C90.387 24.109 88.7975 22.6542 88.7975 20.1397C88.7975 19.4572 88.9232 18.8376 89.1747 18.2808C89.4441 17.7061 89.8123 17.2212 90.2792 16.826C90.7642 16.413 91.3389 16.0986 92.0034 15.8831C92.6859 15.6496 93.4492 15.5329 94.2934 15.5329C95.0298 15.5329 95.6763 15.5868 96.2331 15.6945C96.8078 15.7843 97.3107 15.928 97.7418 16.1256C98.1908 16.3052 98.5949 16.5387 98.9541 16.826C99.3313 17.0954 99.6995 17.4008 100.059 17.742L97.7687 20.0859C97.3197 19.6368 96.8078 19.2866 96.2331 19.0352C95.6763 18.7658 95.1016 18.6311 94.5089 18.6311C93.8264 18.6311 93.3415 18.7388 93.0541 18.9543C92.7668 19.1699 92.6231 19.4572 92.6231 19.8164C92.6231 20.1936 92.7219 20.49 92.9194 20.7055C93.1349 20.9031 93.5301 21.0467 94.1048 21.1365L95.6943 21.3521C98.8015 21.7652 100.355 23.184 100.355 25.6087C100.355 26.2912 100.211 26.9198 99.924 27.4945C99.6366 28.0693 99.2235 28.5721 98.6847 29.0032C98.1639 29.4163 97.5263 29.7396 96.7719 29.9731C96.0355 30.2065 95.2094 30.3233 94.2934 30.3233ZM108.973 30.3233C107.896 30.3233 106.935 30.1527 106.091 29.8114C105.247 29.4522 104.528 28.9583 103.936 28.3297C103.361 27.6831 102.921 26.9018 102.616 25.9858C102.328 25.0699 102.184 24.0461 102.184 22.9146C102.184 21.8011 102.328 20.7953 102.616 19.8973C102.903 18.9813 103.325 18.2 103.882 17.5534C104.456 16.9069 105.157 16.413 105.983 16.0717C106.809 15.7125 107.752 15.5329 108.812 15.5329C109.979 15.5329 110.976 15.7305 111.802 16.1256C112.646 16.5207 113.329 17.0505 113.85 17.7151C114.389 18.3796 114.775 19.1519 115.008 20.032C115.26 20.8941 115.385 21.8011 115.385 22.753V23.9384H106.306V24.1539C106.306 25.0878 106.558 25.8332 107.061 26.39C107.564 26.9288 108.354 27.1982 109.431 27.1982C110.258 27.1982 110.931 27.0365 111.452 26.7132C111.973 26.372 112.458 25.9679 112.907 25.5009L114.9 27.9795C114.272 28.7158 113.446 29.2906 112.422 29.7037C111.416 30.1167 110.267 30.3233 108.973 30.3233ZM108.893 18.4694C108.084 18.4694 107.447 18.7388 106.98 19.2776C106.531 19.7985 106.306 20.4989 106.306 21.379V21.5945H111.263V21.3521C111.263 20.49 111.066 19.7985 110.671 19.2776C110.294 18.7388 109.701 18.4694 108.893 18.4694Z" fill="#17494D"></path>
</svg>
