<svg width="40" height="40" viewBox="0 0 40 40" fill="none" xmlns="http://www.w3.org/2000/svg">
<g clip-path="url(#clip0_8100_68359)">
<path d="M32 8.00006C34.2092 8.00006 36.0001 6.20918 36.0001 4.00003C36.0001 1.79087 34.2092 0 32 0C29.7909 0 28 1.79087 28 4.00003C28 6.20918 29.7909 8.00006 32 8.00006Z" fill="#BA8D46"/>
<path d="M8.00003 8.00006C10.2092 8.00006 12.0001 6.20918 12.0001 4.00003C12.0001 1.79087 10.2092 0 8.00003 0C5.79087 0 4 1.79087 4 4.00003C4 6.20918 5.79087 8.00006 8.00003 8.00006Z" fill="#BA8D46"/>
<path d="M20 8.00006C22.2092 8.00006 24.0001 6.20918 24.0001 4.00003C24.0001 1.79087 22.2092 0 20 0C17.7909 0 16 1.79087 16 4.00003C16 6.20918 17.7909 8.00006 20 8.00006Z" fill="#BA8D46"/>
<path d="M7.99996 12C4.99997 12 2.19994 12.8 0 14V30H4.00003V40H12V34H7.99996V12Z" fill="#BA8D46"/>
<path d="M32 12V34H28V40H36.0001V30H40.0001V14C37.8001 12.8 35 12 32 12Z" fill="#BA8D46"/>
<path d="M28 14C25.8 12.8 23 12 20 12C17 12 14.1999 12.8 12 14V30H16V40H24V30H28V14Z" fill="#BA8D46"/>
</g>
<defs>
<clipPath id="clip0_8100_68359">
<rect width="40" height="40" fill="white"/>
</clipPath>
</defs>
</svg>
