<svg width="28" height="28" viewBox="0 0 28 28" fill="none" xmlns="http://www.w3.org/2000/svg">
<path d="M0.671875 14.0031C0.672626 17.1782 1.80584 20.2489 3.86782 22.6633C5.92981 25.0777 8.78536 26.6775 11.9212 27.1751V17.8564H8.53854V14.0031H11.9252V11.0698C11.8504 10.3832 11.9277 9.68863 12.1516 9.03532C12.3755 8.38202 12.7405 7.78602 13.2207 7.28967C13.7009 6.79333 14.2845 6.4088 14.93 6.1634C15.5756 5.918 16.2672 5.81775 16.9559 5.86977C17.9559 5.88577 18.9559 5.9751 19.9425 6.13643V9.4151H18.2572C17.9708 9.37758 17.6796 9.40491 17.4051 9.49508C17.1306 9.58523 16.88 9.73592 16.6716 9.93599C16.4632 10.1361 16.3024 10.3804 16.2011 10.651C16.0999 10.9215 16.0607 11.2114 16.0865 11.4991V14.0031H19.7812L19.1905 17.8578H16.0865V27.1751C18.6034 26.7773 20.9535 25.6667 22.8588 23.9748C24.764 22.2828 26.1445 20.0804 26.8369 17.6282C27.5292 15.176 27.5045 12.5768 26.7655 10.1382C26.0265 7.69967 24.6042 5.52394 22.667 3.86862C20.7299 2.21331 18.359 1.14773 15.835 0.798039C13.3111 0.448352 10.7398 0.829204 8.42554 1.8955C6.11132 2.9618 4.1511 4.6689 2.77695 6.81467C1.4028 8.96045 0.672279 11.455 0.671875 14.0031Z" fill="#17494D"/>
</svg>
