<svg width="18" height="18" viewBox="0 0 18 18" fill="none" xmlns="http://www.w3.org/2000/svg">
<g opacity="0.4">
<path d="M15.2844 6.42832L14.3619 7.81582C14.8068 8.70313 15.0246 9.68694 14.9958 10.6791C14.967 11.6713 14.6925 12.6408 14.1969 13.5008H3.8019C3.15777 12.3834 2.89087 11.0882 3.04075 9.80712C3.19064 8.52608 3.74933 7.32744 4.63401 6.38889C5.51868 5.45034 6.68225 4.82185 7.9522 4.5966C9.22216 4.37134 10.5309 4.5613 11.6844 5.13832L13.0719 4.21582C11.6593 3.30999 9.98364 2.90408 8.31306 3.06303C6.64249 3.22197 5.07348 3.9366 3.85702 5.09258C2.64055 6.24857 1.84692 7.77913 1.60306 9.43943C1.3592 11.0997 1.67921 12.7939 2.5119 14.2508C2.64278 14.4775 2.83071 14.666 3.05702 14.7976C3.28333 14.9292 3.54013 14.9992 3.8019 15.0008H14.1894C14.4537 15.0019 14.7136 14.9331 14.9428 14.8014C15.1719 14.6696 15.3622 14.4797 15.4944 14.2508C16.1854 13.0538 16.5322 11.689 16.4965 10.3073C16.4608 8.92555 16.0439 7.58056 15.2919 6.42082L15.2844 6.42832ZM7.9419 11.5583C8.08121 11.6978 8.24664 11.8084 8.42874 11.8839C8.61083 11.9594 8.80602 11.9983 9.00315 11.9983C9.20027 11.9983 9.39546 11.9594 9.57756 11.8839C9.75965 11.8084 9.92509 11.6978 10.0644 11.5583L14.3094 5.19082L7.9419 9.43582C7.80243 9.57513 7.69179 9.74056 7.61631 9.92266C7.54082 10.1048 7.50197 10.2999 7.50197 10.4971C7.50197 10.6942 7.54082 10.8894 7.61631 11.0715C7.69179 11.2536 7.80243 11.419 7.9419 11.5583Z" fill="black"/>
</g>
</svg>
