<svg width="27" height="28" viewBox="0 0 27 28" fill="none" xmlns="http://www.w3.org/2000/svg">
<circle cx="13.3333" cy="14.0003" r="13.3333" fill="#17494D"/>
<path fill-rule="evenodd" clip-rule="evenodd" d="M11.2358 10.2268H14.0213V11.6143C14.4226 10.8163 15.4516 10.0993 16.9973 10.0993C19.9606 10.0993 20.6641 11.6878 20.6641 14.6023V20H17.6641V15.266C17.6641 13.6062 17.2628 12.6702 16.2413 12.6702C14.8246 12.6702 14.2358 13.679 14.2358 15.2653V20H11.2358V10.2268ZM6.09156 19.8725H9.09156V10.0993H6.09156V19.8725ZM9.52131 6.9125C9.52142 7.16396 9.47155 7.41293 9.3746 7.64494C9.27765 7.87695 9.13555 8.08738 8.95656 8.264C8.59386 8.62447 8.10292 8.82624 7.59156 8.825C7.0811 8.82466 6.5913 8.6234 6.22806 8.26475C6.04972 8.08753 5.9081 7.87687 5.81132 7.64482C5.71454 7.41278 5.6645 7.16392 5.66406 6.9125C5.66406 6.40475 5.86656 5.91875 6.22881 5.56025C6.59173 5.20112 7.08174 4.99978 7.59231 5C8.10381 5 8.59431 5.20175 8.95656 5.56025C9.31806 5.91875 9.52131 6.40475 9.52131 6.9125Z" fill="#F8F4EC"/>
</svg>
