<svg width="17" height="17" viewBox="0 0 17 17" fill="none" xmlns="http://www.w3.org/2000/svg">
<path d="M16.75 8.49238L14.9755 6.36667L15.2227 3.55524L12.5973 2.93048L11.2227 0.5L8.75 1.61238L6.27727 0.5L4.90273 2.93048L2.27727 3.54762L2.52455 6.36667L0.75 8.49238L2.52455 10.6181L2.27727 13.4371L4.90273 14.0619L6.27727 16.5L8.75 15.38L11.2227 16.4924L12.5973 14.0619L15.2227 13.4371L14.9755 10.6257L16.75 8.49238ZM13.8773 9.62L13.47 10.1152L13.5282 10.7629L13.6591 12.2486L11.6664 12.721L11.3464 13.2848L10.6264 14.5648L9.33182 13.9781L8.75 13.719L8.17545 13.9781L6.88091 14.5648L6.16091 13.2924L5.84091 12.7286L3.84818 12.2562L3.97909 10.7629L4.03727 10.1152L3.63 9.62L2.69182 8.5L3.63 7.37238L4.03727 6.87714L3.97182 6.22191L3.84091 4.74381L5.83364 4.27143L6.15364 3.70762L6.87364 2.42762L8.16818 3.01429L8.75 3.27333L9.32455 3.01429L10.6191 2.42762L11.3391 3.70762L11.6591 4.27143L13.6518 4.74381L13.5209 6.22952L13.4627 6.87714L13.87 7.37238L14.8082 8.49238L13.8773 9.62Z" fill="#17494D"/>
<path d="M7.36091 9.83333L5.67364 8.0581L4.59727 9.19333L7.36091 12.0962L12.6991 6.48857L11.6227 5.35333L7.36091 9.83333Z" fill="#17494D"/>
</svg>
