<svg width="40" height="40" viewBox="0 0 40 40" fill="none" xmlns="http://www.w3.org/2000/svg">
<g clip-path="url(#clip0_8100_68352)">
<path d="M39.2505 18.6024L32.8143 15.3907L39.2505 12.1787C40.4018 11.6044 40.403 9.95885 39.2505 9.38359L20.777 0.164796C20.336 -0.0549319 19.8175 -0.0549319 19.3765 0.164796L0.902948 9.38359C-0.248288 9.95823 -0.249511 11.6037 0.902948 12.1787L7.33916 15.3907L0.902948 18.6024C-0.248288 19.177 -0.249511 20.8222 0.902948 21.3975L7.33916 24.6095L0.902948 27.8212C-0.248288 28.3958 -0.249511 30.041 0.902948 30.6163L19.3765 39.8351C19.8165 40.0545 20.3351 40.0554 20.777 39.8351L39.2505 30.6163C40.4018 30.0416 40.403 28.3964 39.2505 27.8212L32.8143 24.6095L39.2505 21.3975C40.4018 20.8232 40.403 19.1776 39.2505 18.6024ZM20.0767 3.30934L35.0495 10.7813L20.0767 18.2529L5.10396 10.7813L20.0767 3.30934ZM35.0495 29.2189L20.0767 36.6905L5.10396 29.2189L10.84 26.3563L19.3765 30.6163C19.8168 30.8357 20.3351 30.8366 20.777 30.6163L29.3135 26.3563L35.0495 29.2189ZM20.0767 27.4717L5.10396 20.0001L10.84 17.1375L19.3765 21.3975C19.8168 21.6169 20.3351 21.6178 20.777 21.3975L29.3135 17.1375L35.0495 20.0001L20.0767 27.4717Z" fill="#BA8D46"/>
</g>
<defs>
<clipPath id="clip0_8100_68352">
<rect width="40" height="40" fill="white"/>
</clipPath>
</defs>
</svg>
