<svg width="40" height="40" viewBox="0 0 40 40" fill="none" xmlns="http://www.w3.org/2000/svg">
<g clip-path="url(#clip0_8100_68373)">
<path d="M2.73516 13.7467L7.03125 11.5162L11.3273 13.7467L10.5331 8.97109L13.9824 5.57445L9.19531 4.85469L7.03125 0.525391L4.86719 4.85469L0 5.57445L3.52937 8.97109L2.73516 13.7467Z" fill="#BA8D46"/>
<path d="M2.73516 26.6373L7.03125 24.4069L11.3273 26.6373L10.5331 21.8617L13.9824 18.4651L9.19531 17.7453L7.03125 13.416L4.86719 17.7453L0 18.4651L3.52937 21.8617L2.73516 26.6373Z" fill="#BA8D46"/>
<path d="M2.73516 39.4741L7.03125 37.2975L11.3273 39.4741L10.5331 34.7523L13.9824 31.3557L9.19531 30.6359L7.03125 26.3066L4.86719 30.6359L0 31.3557L3.52937 34.7523L2.73516 39.4741Z" fill="#BA8D46"/>
<path d="M16.4062 30.0996H23.5156V37.1309H16.4062V30.0996Z" fill="#BA8D46"/>
<path d="M16.4062 4.31836H40V11.3496H16.4062V4.31836Z" fill="#BA8D46"/>
<path d="M16.4062 17.209H30.5469V24.2402H16.4062V17.209Z" fill="#BA8D46"/>
</g>
<defs>
<clipPath id="clip0_8100_68373">
<rect width="40" height="40" fill="white"/>
</clipPath>
</defs>
</svg>
