<svg width="18" height="18" viewBox="0 0 18 18" fill="none" xmlns="http://www.w3.org/2000/svg">
<g opacity="0.4">
<path d="M4.5 2.8125C2.64375 2.8125 1.125 4.33125 1.125 6.1875C1.125 7.3125 1.6875 8.325 2.53125 8.8875C1.0125 9.675 0 11.1938 0 12.9375H1.125C1.125 11.0813 2.64375 9.5625 4.5 9.5625C6.35625 9.5625 7.875 11.0813 7.875 12.9375H9C9 11.1375 10.4625 9.61875 12.2625 9.5625H12.375C13.7812 9.5625 14.9625 8.71875 15.4688 7.5375C15.4688 7.5375 15.4688 7.48125 15.525 7.48125C15.5813 7.425 15.5813 7.3125 15.5813 7.25625C15.5813 7.2 15.5812 7.2 15.6375 7.14375C15.6375 7.0875 15.6937 6.975 15.6937 6.91875C15.6937 6.8625 15.6938 6.80625 15.75 6.75C15.75 6.69375 15.75 6.6375 15.8063 6.58125V6.24375C15.8063 4.3875 14.2875 2.86875 12.4313 2.86875C10.575 2.86875 9.05625 4.3875 9.05625 6.24375C9.05625 7.36875 9.61875 8.38125 10.4625 8.94375C9.61875 9.3375 8.94375 10.0125 8.49375 10.8C8.04375 10.0125 7.36875 9.3375 6.525 8.94375C7.3125 8.325 7.875 7.3125 7.875 6.1875C7.875 4.33125 6.35625 2.8125 4.5 2.8125ZM4.5 3.9375C5.7375 3.9375 6.75 4.95 6.75 6.1875C6.75 7.425 5.7375 8.4375 4.5 8.4375C3.2625 8.4375 2.25 7.425 2.25 6.1875C2.25 4.95 3.2625 3.9375 4.5 3.9375ZM12.375 3.9375C13.6125 3.9375 14.625 4.95 14.625 6.1875C14.625 7.425 13.6125 8.4375 12.375 8.4375C11.1375 8.4375 10.125 7.425 10.125 6.1875C10.125 4.95 11.1375 3.9375 12.375 3.9375ZM13.5563 10.125V11.3063C13.2188 11.3625 12.8812 11.5312 12.6 11.7L11.7562 10.8562L10.9688 11.6438L11.8125 12.4875C11.5875 12.7688 11.475 13.1062 11.4187 13.5H10.125V14.625H11.3063C11.3625 14.9625 11.5312 15.3 11.7 15.6375L10.8562 16.4812L11.6438 17.2688L12.4875 16.425C12.7688 16.5938 13.1062 16.7625 13.4437 16.8187V18H14.5687V16.8187C14.9062 16.7625 15.2438 16.5938 15.525 16.425L16.3687 17.2688L17.1562 16.4812L16.3125 15.6375C16.5375 15.3562 16.65 15.0188 16.7063 14.625H18V13.5H16.8188C16.7625 13.1625 16.5938 12.825 16.425 12.4875L17.2688 11.6438L16.4812 10.8562L15.6375 11.7C15.3562 11.5312 15.0188 11.3625 14.6813 11.3063V10.125H13.5563ZM14.0625 12.375C15.0188 12.375 15.75 13.1062 15.75 14.0625C15.75 15.0188 15.0188 15.75 14.0625 15.75C13.1062 15.75 12.375 15.0188 12.375 14.0625C12.375 13.1062 13.1062 12.375 14.0625 12.375ZM14.0625 13.5C13.991 13.5009 13.9205 13.5174 13.8561 13.5484C13.7891 13.5802 13.7282 13.6234 13.6761 13.6761C13.6234 13.7282 13.5802 13.7891 13.5484 13.8561C13.5174 13.9205 13.5009 13.991 13.5 14.0625C13.5 14.1328 13.5174 14.2031 13.5484 14.2689C13.5793 14.3348 13.6232 14.3966 13.6761 14.4489C13.7284 14.5018 13.7902 14.5457 13.8561 14.5766C13.9205 14.6076 13.991 14.6241 14.0625 14.625C14.3438 14.625 14.625 14.3438 14.625 14.0625C14.625 13.7812 14.3438 13.5 14.0625 13.5Z" fill="black"/>
</g>
</svg>
