<svg width="28" height="28" viewBox="0 0 28 28" fill="none" xmlns="http://www.w3.org/2000/svg">
<path d="M13.9953 1.2002C6.92598 1.2002 1.19531 6.93086 1.19531 14.0002C1.19531 21.0695 6.92598 26.8002 13.9953 26.8002C21.0646 26.8002 26.7953 21.0695 26.7953 14.0002C26.7953 6.93086 21.0646 1.2002 13.9953 1.2002ZM19.202 11.6855C19.2073 11.7949 19.2086 11.9042 19.2086 12.0109C19.2086 15.3442 16.674 19.1855 12.0366 19.1855C10.6664 19.1878 9.3246 18.7943 8.17265 18.0522C8.36865 18.0762 8.56998 18.0855 8.77398 18.0855C9.95531 18.0855 11.042 17.6842 11.9046 17.0069C11.3789 16.9965 10.8695 16.8225 10.4475 16.5089C10.0254 16.1953 9.71164 15.7579 9.54998 15.2575C9.92752 15.3293 10.3164 15.3143 10.6873 15.2135C10.1167 15.0981 9.60358 14.789 9.23492 14.3384C8.86627 13.8879 8.66479 13.3237 8.66465 12.7415V12.7109C9.00464 12.8989 9.39398 13.0135 9.80731 13.0269C9.27238 12.6708 8.89369 12.1238 8.7487 11.4977C8.60372 10.8717 8.70338 10.2139 9.02731 9.65886C9.66059 10.4375 10.4503 11.0745 11.3454 11.5286C12.2405 11.9827 13.2209 12.2437 14.2233 12.2949C14.0959 11.7539 14.1507 11.1861 14.3793 10.6795C14.6079 10.173 14.9975 9.75618 15.4874 9.49388C15.9773 9.23158 16.5402 9.13849 17.0885 9.22909C17.6368 9.31969 18.1398 9.5889 18.5193 9.99486C19.0835 9.88323 19.6246 9.67627 20.1193 9.38286C19.9313 9.96704 19.5375 10.4631 19.0113 10.7789C19.5111 10.7187 19.9991 10.5843 20.4593 10.3802C20.1213 10.8867 19.6955 11.3288 19.202 11.6855Z" fill="#17494D"/>
</svg>
