<svg width="26" height="25" viewBox="0 0 26 25" fill="none" xmlns="http://www.w3.org/2000/svg">
<path d="M24.3213 0.400391H12.4141C12.4141 3.27521 14.823 5.61517 17.7826 5.61517H19.9851V7.65427C19.9851 10.5291 22.3941 12.8691 25.3537 12.8691V1.40323C25.3537 0.834959 24.9064 0.400391 24.3213 0.400391Z" fill="#2684FF"/>
<path d="M18.4346 6.14722H6.52734C6.52734 9.02203 8.93632 11.362 11.896 11.362H14.0984V13.4345C14.0984 16.3093 16.5075 18.6494 19.4671 18.6494V7.15002C19.4671 6.61521 19.0196 6.14722 18.4346 6.14722Z" fill="url(#paint0_linear_12823_12955)"/>
<path d="M12.5518 11.9319H0.644531C0.644531 14.8067 3.05351 17.1466 6.01312 17.1466H8.21562V19.1858C8.21562 22.0606 10.6246 24.4005 13.5842 24.4005V12.9347C13.5842 12.3664 13.1025 11.9319 12.5518 11.9319Z" fill="url(#paint1_linear_12823_12955)"/>
<defs>
<linearGradient id="paint0_linear_12823_12955" x1="19.2137" y1="6.17607" x2="14.3027" y2="11.3899" gradientUnits="userSpaceOnUse">
<stop offset="0.176" stop-color="#0052CC"/>
<stop offset="1" stop-color="#2684FF"/>
</linearGradient>
<linearGradient id="paint1_linear_12823_12955" x1="13.6618" y1="11.9703" x2="7.97401" y2="17.6676" gradientUnits="userSpaceOnUse">
<stop offset="0.176" stop-color="#0052CC"/>
<stop offset="1" stop-color="#2684FF"/>
</linearGradient>
</defs>
</svg>
