<svg width="222" height="23" viewBox="0 0 222 23" fill="none" xmlns="http://www.w3.org/2000/svg">
<g clip-path="url(#clip0_8100_68570)">
<path d="M35.8458 3.875C37.31 3.875 38.5006 4.20037 39.4176 4.85112C40.3345 5.4871 40.793 6.56675 40.793 8.09005C40.793 8.6521 40.6599 9.16235 40.3937 9.62081C40.1422 10.0645 39.8095 10.449 39.3953 10.7744C40.0757 11.1294 40.6303 11.61 41.0592 12.2164C41.5029 12.8228 41.7247 13.5919 41.7247 14.5236C41.7247 15.9138 41.2367 17.0009 40.2606 17.7848C39.2992 18.5686 38.0125 18.9605 36.4004 18.9605H30.2109V3.875H35.8458ZM35.4243 6.27092H33.0727V10.0201H35.2025C36.0011 10.0201 36.6223 9.87226 37.0659 9.57643C37.5245 9.26588 37.7537 8.7852 37.7537 8.13444C37.7537 7.42453 37.5466 6.93649 37.1325 6.67028C36.7184 6.40402 36.149 6.27092 35.4243 6.27092ZM36.3783 12.3495H33.0727V16.5868H36.1786C36.9477 16.5868 37.5614 16.4093 38.0199 16.0543C38.4932 15.6994 38.7298 15.1966 38.7298 14.5458C38.7298 13.8359 38.5153 13.2961 38.0865 12.9263C37.6576 12.5418 37.0882 12.3495 36.3783 12.3495Z" fill="#17494D"/>
<path d="M51.2928 6.27092H49.5181V10.8853H51.3372C52.195 10.8853 52.9051 10.7152 53.4671 10.3751C54.0292 10.0201 54.3097 9.44332 54.3097 8.64469C54.3097 7.80168 54.0439 7.1953 53.5113 6.82556C52.9786 6.45581 52.2394 6.27092 51.2928 6.27092ZM55.4191 18.9605L52.2246 13.1925C52.0619 13.2073 51.8918 13.2221 51.7143 13.2369C51.5369 13.2369 51.3594 13.2369 51.1819 13.2369H49.5181V18.9605H46.6562V3.875H51.3816C53.0233 3.875 54.4284 4.25214 55.5966 5.00641C56.7648 5.76072 57.3495 6.92909 57.3495 8.51159C57.3495 9.44332 57.1052 10.2494 56.6172 10.9297C56.1439 11.5952 55.5299 12.1129 54.7756 12.4826L58.4809 18.9605H55.4191Z" fill="#17494D"/>
<path d="M73.1221 18.9605H62.5625V3.875H71.5694L72.0127 6.13781H65.4242V10.1976H69.4615L69.9274 12.4826H65.4242V16.7199H72.6562L73.1221 18.9605Z" fill="#17494D"/>
<path d="M82.7277 7.82384L80.7532 13.0816H84.7463L82.7277 7.82384ZM84.0141 3.875L89.8709 18.5612L86.9872 18.9605L85.6335 15.411H79.9101L78.5791 18.9605H75.6953L81.5742 3.875H84.0141Z" fill="#17494D"/>
<path d="M96.4697 3.87379V10.1964L102.127 3.54102L104.256 5.18268L99.7753 10.3739L106.076 18.9593H102.504L97.8895 12.5701L96.4697 14.234V18.9593H93.5859V3.87379H96.4697Z" fill="#17494D"/>
<path d="M112.792 3.875V18.9605H109.93V3.875H112.792Z" fill="#17494D"/>
<path d="M131.249 3.875V18.9605H128.366L121.377 8.86652V18.9605H118.516V3.875H121.377L128.366 13.9468V3.875H131.249Z" fill="#17494D"/>
<path d="M142.631 10.7079H148.133V18.1619C147.556 18.4725 146.861 18.7387 146.047 18.9606C145.234 19.1676 144.362 19.2712 143.43 19.2712C141.078 19.2712 139.311 18.5169 138.128 17.0083C136.959 15.485 136.375 13.6437 136.375 11.4844C136.375 9.19196 137.041 7.29887 138.372 5.80509C139.703 4.31133 141.507 3.56445 143.785 3.56445C144.228 3.56445 144.857 3.6384 145.67 3.7863C146.499 3.93419 147.246 4.18562 147.911 4.54057L147.001 6.60372C146.351 6.41147 145.818 6.2636 145.404 6.16007C145.005 6.04172 144.48 5.98258 143.829 5.98258C142.498 5.98258 141.418 6.44104 140.59 7.35801C139.777 8.26018 139.37 9.62826 139.37 11.4622C139.37 13.1186 139.703 14.4349 140.368 15.411C141.049 16.3724 142.047 16.853 143.363 16.853C143.851 16.853 144.273 16.8308 144.628 16.7865C144.983 16.7273 145.293 16.6682 145.559 16.609V12.9264H142.387L142.631 10.7079Z" fill="#17494D"/>
<path d="M167.251 14.3905L163.635 9.75392V18.9605H160.773V3.875H162.592L167.695 10.841L172.332 3.875H174.084V18.9605H171.178V10.2642L168.361 14.2352L167.251 14.3905Z" fill="#17494D"/>
<path d="M185.079 7.82384L183.105 13.0816H187.098L185.079 7.82384ZM186.366 3.875L192.222 18.5612L189.339 18.9605L187.986 15.411H182.262L180.931 18.9605H178.047L183.926 3.875H186.366Z" fill="#17494D"/>
<path d="M200.863 6.27092H199.088V10.8853H200.907C201.765 10.8853 202.475 10.7152 203.037 10.3751C203.599 10.0201 203.88 9.44332 203.88 8.64469C203.88 7.80168 203.614 7.1953 203.081 6.82556C202.549 6.45581 201.81 6.27092 200.863 6.27092ZM204.989 18.9605L201.795 13.1925C201.632 13.2073 201.462 13.2221 201.284 13.2369C201.107 13.2369 200.93 13.2369 200.752 13.2369H199.088V18.9605H196.227V3.875H200.952C202.593 3.875 203.999 4.25214 205.167 5.00641C206.335 5.76072 206.92 6.92909 206.92 8.51159C206.92 9.44332 206.675 10.2494 206.187 10.9297C205.714 11.5952 205.101 12.1129 204.346 12.4826L208.051 18.9605H204.989Z" fill="#17494D"/>
<path d="M212.105 15.6323C212.563 15.869 213.148 16.1056 213.857 16.3423C214.568 16.5788 215.24 16.6972 215.876 16.6972C216.778 16.6972 217.451 16.5567 217.895 16.2757C218.354 15.9947 218.583 15.588 218.583 15.0555C218.583 14.5527 218.28 14.109 217.673 13.7244C217.082 13.3251 216.423 12.9406 215.699 12.5708C214.634 12.0236 213.614 11.3877 212.637 10.663C211.676 9.92349 211.195 8.88822 211.195 7.55712C211.195 6.41832 211.647 5.46437 212.548 4.69531C213.451 3.91146 214.73 3.51953 216.387 3.51953C217.141 3.51953 217.895 3.63785 218.65 3.87449C219.404 4.11112 220.069 4.36994 220.646 4.65094L219.692 6.95815C219.234 6.73632 218.738 6.52926 218.206 6.33695C217.673 6.12994 217.082 6.02641 216.431 6.02641C215.795 6.02641 215.255 6.15211 214.811 6.40351C214.383 6.65496 214.168 7.03951 214.168 7.55712C214.168 8.10435 214.427 8.56281 214.945 8.93255C215.477 9.28754 216.113 9.64987 216.853 10.0196L217.007 10.1083C218.073 10.6556 219.093 11.3063 220.069 12.0606C221.06 12.8001 221.555 13.8132 221.555 15.0999C221.555 16.2979 221.067 17.2888 220.091 18.0726C219.13 18.8565 217.74 19.2484 215.921 19.2484C215.285 19.2484 214.464 19.1079 213.458 18.8269C212.467 18.5459 211.801 18.2575 211.462 17.9617L212.105 15.6323Z" fill="#17494D"/>
<path d="M11.383 22.7661C17.6654 22.7661 22.7583 17.6732 22.7583 11.3908C22.7583 5.10848 17.6654 0.015625 11.383 0.015625C5.10067 0.015625 0.0078125 5.10848 0.0078125 11.3908C0.0078125 17.6732 5.10067 22.7661 11.383 22.7661Z" fill="#17494D"/>
<path fill-rule="evenodd" clip-rule="evenodd" d="M2.88281 3.74157C3.57251 3.49859 4.3337 3.3771 5.1664 3.3771C6.65768 3.3771 7.89638 3.76405 8.88259 4.53795C9.86874 5.28837 10.5542 6.2968 10.9391 7.56319C11.2518 6.13265 11.9854 4.98353 13.1399 4.11582C14.2704 3.24811 15.5692 2.81426 17.0365 2.81426C17.7242 2.81426 18.695 2.91531 19.2914 3.06883C17.2781 1.18064 14.2416 0 11.2637 0C7.93494 0 4.9437 1.44483 2.88281 3.74157ZM8.8465 12.5584V16.4982H3.54283V12.5584C3.54283 11.5734 3.77133 10.8229 4.22834 10.307C4.68534 9.76767 5.3468 9.49794 6.21272 9.49794C7.07858 9.49794 7.74006 9.76767 8.19705 10.307C8.63004 10.8229 8.8465 11.5734 8.8465 12.5584ZM18.2632 9.74419C18.7202 10.2836 18.9487 11.0575 18.9487 12.0659V16.4982H13.3564V12.1362C13.3564 11.1278 13.609 10.3422 14.1141 9.77938C14.6192 9.19307 15.3167 8.89996 16.2067 8.89996C17.0966 8.89996 17.7821 9.18135 18.2632 9.74419Z" fill="white"/>
</g>
<defs>
<clipPath id="clip0_8100_68570">
<rect width="221.561" height="22.797" fill="white"/>
</clipPath>
</defs>
</svg>
