<svg width="160" height="33" viewBox="0 0 160 33" fill="none" xmlns="http://www.w3.org/2000/svg">
<g clip-path="url(#clip0_8100_68585)">
<path d="M66.4132 11.9317C65.9864 11.6573 65.529 11.4743 65.0411 11.3829C64.5533 11.2914 64.096 11.2305 63.6691 11.2305C62.9983 11.2305 62.3885 11.3219 61.8091 11.5049C61.2299 11.6878 60.681 11.9927 60.2236 12.389C59.7663 12.7855 59.4309 13.3343 59.187 13.9746L61.1688 14.4319C61.3213 14.0355 61.5957 13.7002 62.0226 13.3952C62.419 13.0903 62.9982 12.9074 63.6995 12.9074C64.3704 12.9074 64.8887 13.0903 65.2546 13.4258C65.5899 13.7611 65.773 14.249 65.773 14.8587V14.9197C65.773 15.1636 65.6814 15.3466 65.4985 15.4686C65.3155 15.5905 65.0107 15.6515 64.6143 15.7124C64.2179 15.7734 63.6691 15.8344 63.0288 15.8954C62.5104 15.9564 62.0226 16.0478 61.5043 16.1698C61.0164 16.2918 60.559 16.4747 60.1627 16.6881C59.7663 16.9321 59.4309 17.237 59.2174 17.6333C58.9735 18.0297 58.8516 18.548 58.8516 19.1578C58.8516 19.8591 59.004 20.4689 59.3394 20.9567C59.6748 21.4446 60.1017 21.8105 60.6505 22.0849C61.1993 22.3287 61.8396 22.4812 62.5104 22.4812C63.1203 22.4812 63.6081 22.3897 64.0654 22.2068C64.4923 22.0239 64.8582 21.8105 65.1326 21.536C65.407 21.2616 65.6205 21.0177 65.7424 20.7433H65.8339V22.2373H67.9072V15.0112C67.9072 14.2184 67.7853 13.5782 67.5109 13.0903C67.206 12.572 66.8401 12.2061 66.4132 11.9317ZM65.773 18.3041C65.773 18.7309 65.651 19.1274 65.4375 19.5237C65.2241 19.8896 64.8887 20.1945 64.4923 20.4384C64.0654 20.6823 63.5776 20.7738 62.9983 20.7738C62.3885 20.7738 61.9006 20.6518 61.5347 20.3774C61.1384 20.103 60.9554 19.7066 60.9554 19.1883C60.9554 18.8224 61.0469 18.5175 61.2603 18.2736C61.4737 18.0297 61.7177 17.8772 62.0531 17.7553C62.3885 17.6333 62.7544 17.5418 63.1813 17.4809C63.3642 17.4504 63.5776 17.4199 63.8215 17.3894C64.096 17.3589 64.3398 17.298 64.6143 17.2674C64.8887 17.2065 65.1326 17.176 65.3461 17.115C65.5595 17.054 65.712 16.993 65.773 16.9015V18.3041Z" fill="#17494D"/>
<path d="M74.7059 11.2012C74.0657 11.2012 73.4859 11.3841 72.998 11.7195C72.5101 12.0549 72.1444 12.5123 71.9618 13.0916H71.8397V11.3536H69.7969V22.208H71.9008V15.5917C71.9008 15.1344 72.0222 14.7075 72.2363 14.3416C72.4497 13.9758 72.7544 13.6709 73.151 13.4575C73.5469 13.244 73.9738 13.1526 74.4925 13.1526C74.7059 13.1526 74.9193 13.183 75.1327 13.2135C75.3462 13.244 75.4985 13.2745 75.5898 13.305V11.2926C75.4985 11.2926 75.3461 11.2622 75.1629 11.2622C75.0106 11.2012 74.8583 11.2012 74.7059 11.2012Z" fill="#17494D"/>
<path d="M8.359 9.73705H0.1875L8.359 26.7809L20.8296 1.38281L8.359 9.73705Z" fill="#17494D"/>
<path d="M38.5108 10.1644C39.1816 9.73749 39.9134 9.52408 40.7672 9.52408C41.2245 9.52408 41.6514 9.58502 42.0782 9.70702C42.5051 9.82896 42.871 10.0119 43.2064 10.2863C43.5418 10.5303 43.8162 10.8351 44.0601 11.201C44.304 11.5669 44.4565 11.9632 44.548 12.4511H46.7433C46.6213 11.6584 46.3774 10.9875 46.042 10.3778C45.7066 9.76796 45.2493 9.24967 44.7309 8.82279C44.2126 8.3959 43.6027 8.09103 42.932 7.84708C42.2612 7.63368 41.5599 7.51172 40.7672 7.51172C39.5171 7.51172 38.3889 7.81662 37.4132 8.3959C36.4375 8.97526 35.6447 9.82896 35.0959 10.9571C34.5166 12.0547 34.2422 13.3963 34.2422 14.9513C34.2422 16.5063 34.5166 17.8173 35.0959 18.9454C35.6752 20.0431 36.4375 20.9273 37.4132 21.5066C38.3889 22.0859 39.5171 22.3908 40.7672 22.3908C41.5599 22.3908 42.2917 22.2688 42.9624 22.0249C43.6333 21.781 44.2431 21.4456 44.7614 21.0188C45.2797 20.5919 45.7066 20.0735 46.042 19.4638C46.3774 18.854 46.6213 18.2137 46.7128 17.5124H44.5175C44.426 17.9697 44.2736 18.3966 44.0296 18.732C43.7857 19.0979 43.5113 19.3723 43.1759 19.6162C42.8405 19.8601 42.4746 20.0431 42.0477 20.165C41.6514 20.287 41.194 20.3479 40.7366 20.3479C39.9134 20.3479 39.1816 20.1345 38.5108 19.7382C37.8401 19.3113 37.3217 18.7015 36.9558 17.9088C36.5899 17.0856 36.3765 16.1099 36.3765 14.9207C36.3765 13.7622 36.5595 12.756 36.9558 11.9632C37.3522 11.201 37.8705 10.5912 38.5108 10.1644Z" fill="#17494D"/>
<path d="M9.30469 32.3598L21.7448 24.0056H29.9468L21.7448 6.99219L9.30469 32.3598Z" fill="#17494D"/>
<path d="M55.6764 11.6891C55.1275 11.3842 54.4568 11.2317 53.725 11.2317C52.8712 11.2317 52.2005 11.4147 51.6821 11.7501C51.1638 12.0854 50.7674 12.5733 50.5235 13.1526H50.4015V7.75586H48.3281V22.2386H50.432V15.7748C50.432 15.1954 50.5539 14.7076 50.7674 14.3112C50.9808 13.9148 51.3162 13.5795 51.6821 13.366C52.0785 13.1526 52.5358 13.0611 53.0237 13.0611C53.7555 13.0611 54.3347 13.2745 54.7312 13.7319C55.1275 14.1588 55.341 14.7991 55.341 15.5918V22.2386H57.4448V15.3174C57.4448 14.4027 57.2924 13.6709 56.9875 13.0611C56.652 12.4513 56.2252 11.9939 55.6764 11.6891Z" fill="#17494D"/>
<path d="M159.865 16.6889C159.865 15.7132 159.743 14.8595 159.469 14.1888C159.195 13.4875 158.859 12.9386 158.401 12.5118C157.944 12.0849 157.426 11.7495 156.846 11.5666C156.267 11.3532 155.688 11.2617 155.078 11.2617C154.072 11.2617 153.188 11.5057 152.425 11.963C151.663 12.4508 151.084 13.0911 150.657 13.9448C150.23 14.7985 150.047 15.7742 150.047 16.8719C150.047 18 150.26 18.9757 150.657 19.8294C151.084 20.6526 151.663 21.3234 152.425 21.7807C153.188 22.2381 154.133 22.4515 155.2 22.4515C155.993 22.4515 156.694 22.3295 157.304 22.0857C157.913 21.8417 158.432 21.5063 158.859 21.0489C159.286 20.5916 159.56 20.1038 159.713 19.494L157.7 19.1281C157.579 19.4635 157.395 19.7379 157.152 19.9818C156.907 20.2257 156.633 20.3782 156.297 20.5001C155.963 20.6221 155.596 20.6831 155.2 20.6831C154.59 20.6831 154.041 20.5611 153.584 20.2867C153.127 20.0123 152.761 19.616 152.517 19.1281C152.273 18.6403 152.151 18.0914 152.151 17.4207H159.865V16.6889ZM152.151 15.8352C152.182 15.3779 152.303 14.9205 152.486 14.5241C152.731 14.0668 153.065 13.6704 153.492 13.396C153.95 13.0911 154.468 12.9692 155.048 12.9692C155.596 12.9692 156.084 13.0911 156.481 13.3351C156.877 13.5789 157.212 13.9144 157.426 14.3717C157.639 14.7985 157.761 15.2864 157.761 15.8352H152.151Z" fill="#17494D"/>
<path d="M137.118 15.3781C136.691 15.0732 136.265 14.7988 135.777 14.6159C135.289 14.4329 134.832 14.2805 134.344 14.1585L132.941 13.7926C132.667 13.7316 132.362 13.6402 132.057 13.5182C131.752 13.3963 131.478 13.2743 131.203 13.0913C130.929 12.9084 130.715 12.7255 130.563 12.4511C130.411 12.2072 130.319 11.9022 130.319 11.5669C130.319 11.1705 130.441 10.8046 130.685 10.4692C130.929 10.1338 131.264 9.88996 131.691 9.70702C132.118 9.52408 132.637 9.43261 133.246 9.43261C134.069 9.43261 134.771 9.61555 135.32 9.98143C135.869 10.3473 136.173 10.8656 136.265 11.5364H138.368C138.338 10.7437 138.125 10.0729 137.698 9.46308C137.271 8.85325 136.661 8.3959 135.929 8.03002C135.167 7.69468 134.313 7.51172 133.337 7.51172C132.362 7.51172 131.508 7.69468 130.715 8.03002C129.953 8.36544 129.344 8.85325 128.886 9.49354C128.429 10.1034 128.216 10.8351 128.216 11.6888C128.216 12.695 128.55 13.5182 129.221 14.1281C129.892 14.7378 130.807 15.1952 131.966 15.5306L133.673 15.9879C134.192 16.1099 134.649 16.2928 135.075 16.4757C135.502 16.6587 135.808 16.8721 136.051 17.1465C136.295 17.4209 136.417 17.7563 136.417 18.2137C136.417 18.671 136.265 19.0979 135.99 19.4638C135.716 19.7991 135.32 20.0735 134.832 20.287C134.344 20.47 133.795 20.5919 133.185 20.5919C132.637 20.5919 132.118 20.5004 131.63 20.3479C131.173 20.165 130.776 19.9211 130.472 19.5857C130.166 19.2503 130.014 18.793 129.953 18.2747H127.758C127.819 19.1588 128.062 19.8906 128.489 20.5309C128.947 21.1712 129.557 21.6591 130.35 21.9944C131.142 22.3298 132.088 22.5128 133.155 22.5128C134.283 22.5128 135.259 22.3298 136.051 21.9639C136.844 21.5981 137.454 21.0797 137.881 20.47C138.307 19.8297 138.521 19.0979 138.521 18.2747C138.521 17.6344 138.399 17.055 138.125 16.5977C137.881 16.0794 137.545 15.683 137.118 15.3781Z" fill="#17494D"/>
<path d="M141.115 7.17578C140.749 7.17578 140.445 7.29774 140.17 7.54166C139.896 7.7856 139.773 8.09048 139.773 8.42589C139.773 8.76124 139.896 9.06619 140.17 9.31006C140.445 9.554 140.749 9.67594 141.115 9.67594C141.481 9.67594 141.786 9.554 142.061 9.31006C142.335 9.06619 142.456 8.76124 142.456 8.42589C142.456 8.09048 142.335 7.7856 142.061 7.54166C141.816 7.29774 141.481 7.17578 141.115 7.17578Z" fill="#17494D"/>
<path d="M142.151 11.3535H140.047V22.2079H142.151V11.3535Z" fill="#17494D"/>
<path d="M148.708 20.4394C148.586 20.4699 148.434 20.4699 148.251 20.4699C148.007 20.4699 147.793 20.4393 147.611 20.3784C147.428 20.3174 147.244 20.1649 147.123 19.9515C147.001 19.7381 146.94 19.4332 146.94 19.0368V13.0608H149.166V11.3534H146.94V8.76172H144.836V11.3534H143.25V13.0608H144.836V19.4637C144.836 20.104 144.988 20.6528 145.293 21.1102C145.598 21.537 145.964 21.8724 146.452 22.0858C146.94 22.2993 147.458 22.3908 148.007 22.3908C148.342 22.3908 148.617 22.3602 148.86 22.2993C149.074 22.2383 149.257 22.2078 149.379 22.1468L148.982 20.4089C148.952 20.4089 148.83 20.4394 148.708 20.4394Z" fill="#17494D"/>
<path d="M112.301 8.45647C111.325 7.84665 110.197 7.57227 108.947 7.57227C107.697 7.57227 106.569 7.87718 105.593 8.45647C104.618 9.03576 103.824 9.88953 103.276 11.0176C102.696 12.1153 102.422 13.4568 102.422 15.0118C102.422 16.5668 102.696 17.8778 103.276 19.006C103.855 20.1036 104.618 20.9878 105.593 21.5672C106.569 22.1464 107.697 22.4513 108.947 22.4513C110.197 22.4513 111.325 22.1464 112.301 21.5672C113.277 20.9573 114.069 20.1036 114.618 19.006C115.197 17.9084 115.472 16.5668 115.472 15.0118C115.472 13.4568 115.197 12.1457 114.618 11.0176C114.069 9.88953 113.277 9.03576 112.301 8.45647ZM112.728 17.9693C112.362 18.7621 111.843 19.4023 111.173 19.7987C110.533 20.2256 109.77 20.4085 108.947 20.4085C108.123 20.4085 107.362 20.1951 106.722 19.7987C106.081 19.3719 105.532 18.7621 105.166 17.9693C104.8 17.1461 104.587 16.1704 104.587 14.9813C104.587 13.7922 104.77 12.8165 105.166 11.9933C105.563 11.17 106.081 10.5603 106.722 10.1639C107.362 9.73705 108.123 9.52365 108.947 9.52365C109.77 9.52365 110.533 9.73705 111.173 10.1639C111.843 10.5908 112.362 11.2006 112.728 11.9933C113.124 12.786 113.307 13.7922 113.307 14.9813C113.307 16.1704 113.124 17.1461 112.728 17.9693Z" fill="#17494D"/>
<path d="M95.4091 12.4805C94.9521 12.0537 94.4341 11.7183 93.8542 11.5353C93.2751 11.3219 92.6959 11.2305 92.0859 11.2305C91.0799 11.2305 90.1954 11.4743 89.433 11.9317C88.6707 12.4196 88.0915 13.0599 87.6647 13.9136C87.2379 14.7673 87.0547 15.743 87.0547 16.8406C87.0547 17.9687 87.2688 18.9444 87.6647 19.7981C88.0915 20.6213 88.6707 21.2921 89.433 21.7495C90.1954 22.2068 91.141 22.4202 92.208 22.4202C93.0006 22.4202 93.7019 22.2983 94.3119 22.0543C94.9212 21.8105 95.44 21.475 95.8668 21.0177C96.2936 20.5603 96.5681 20.0725 96.7205 19.4627L94.7078 19.0968C94.5864 19.4322 94.4032 19.7066 94.1596 19.9506C93.9153 20.1945 93.6408 20.3469 93.3053 20.4689C92.9704 20.5908 92.604 20.6518 92.208 20.6518C91.598 20.6518 91.049 20.5299 90.592 20.2555C90.1343 19.9811 89.7686 19.5847 89.525 19.0968C89.2807 18.609 89.1586 18.0602 89.1586 17.3894H96.8728V16.6271C96.8728 15.6515 96.7513 14.7977 96.4769 14.127C96.2326 13.4867 95.8668 12.9074 95.4091 12.4805ZM89.1894 15.8344C89.2196 15.3771 89.3418 14.9197 89.525 14.5233C89.7686 14.066 90.1041 13.6696 90.531 13.3952C90.988 13.0903 91.5067 12.9684 92.0859 12.9684C92.6348 12.9684 93.1227 13.0903 93.5193 13.3343C93.9153 13.5782 94.2508 13.9136 94.4642 14.3709C94.6776 14.7977 94.7998 15.2856 94.7998 15.8344H89.1894Z" fill="#17494D"/>
<path d="M83.5462 13.122H83.3932C83.2718 12.9086 83.0886 12.6342 82.845 12.3293C82.6007 12.0244 82.296 11.7805 81.8692 11.5366C81.4424 11.3232 80.9236 11.2012 80.2223 11.2012C79.3385 11.2012 78.5761 11.4146 77.8748 11.872C77.1735 12.2988 76.6555 12.9391 76.2588 13.7623C75.8622 14.5856 75.6797 15.5917 75.6797 16.7198C75.6797 17.848 75.8622 18.8542 76.2588 19.6469C76.6555 20.4396 77.2037 21.0189 77.8748 21.4458C78.5761 21.8422 79.3385 22.0556 80.1921 22.0556C80.8625 22.0556 81.4115 21.9641 81.8081 21.7507C82.2349 21.5373 82.5396 21.2933 82.7839 21.0189C83.0275 20.7445 83.2107 20.4701 83.3328 20.2567H83.4543V22.391C83.4543 23.2447 83.1798 23.8545 82.6617 24.2509C82.1437 24.6473 81.4726 24.8302 80.68 24.8302C80.1009 24.8302 79.613 24.7387 79.2465 24.5863C78.8808 24.4338 78.5761 24.2204 78.3627 23.9764C78.1493 23.7326 77.9661 23.5191 77.844 23.3057L76.0146 24.0679C76.1978 24.5253 76.5024 24.9217 76.8991 25.2876C77.2957 25.6534 77.7836 25.9583 78.4238 26.1717C79.0331 26.3851 79.7955 26.5071 80.6491 26.5071C81.5638 26.5071 82.4181 26.3547 83.1496 26.0803C83.8811 25.8058 84.4911 25.3485 84.918 24.7387C85.3448 24.1289 85.5582 23.3667 85.5582 22.452V11.3536H83.4852V13.122H83.5462ZM83.1798 18.6407C82.9664 19.1591 82.6316 19.5859 82.2047 19.8604C81.7772 20.1347 81.2592 20.2872 80.6491 20.2872C80.0089 20.2872 79.4908 20.1347 79.064 19.8298C78.6372 19.5249 78.3318 19.0981 78.0882 18.5798C77.8748 18.031 77.7527 17.4211 77.7527 16.7198C77.7527 16.0186 77.844 15.4088 78.0574 14.8295C78.2715 14.2807 78.6063 13.8233 79.0331 13.4879C79.4599 13.1526 79.9787 13.0001 80.6189 13.0001C81.229 13.0001 81.747 13.1526 82.1739 13.4879C82.6007 13.7929 82.9053 14.2197 83.1194 14.799C83.3328 15.3478 83.4543 15.9881 83.4543 16.7198C83.5154 17.4821 83.4241 18.1224 83.1798 18.6407Z" fill="#17494D"/>
<path d="M124.434 11.6878C123.885 11.3829 123.214 11.2305 122.483 11.2305C121.659 11.2305 120.989 11.4134 120.44 11.7488C119.921 12.0842 119.525 12.572 119.251 13.1208H119.129V11.3524H117.086V22.2068H119.19V15.7734C119.19 15.1941 119.312 14.7063 119.525 14.3099C119.739 13.9136 120.043 13.5782 120.409 13.3647C120.806 13.1513 121.233 13.0599 121.721 13.0599C122.453 13.0599 123.001 13.2733 123.398 13.7306C123.794 14.188 124.008 14.7977 124.008 15.5905V22.2373H126.111V15.3161C126.111 14.4319 125.958 13.6696 125.654 13.0599C125.44 12.45 124.983 11.9927 124.434 11.6878Z" fill="#17494D"/>
</g>
<defs>
<clipPath id="clip0_8100_68585">
<rect width="159.884" height="31.5651" fill="white" transform="translate(0 0.796875)"/>
</clipPath>
</defs>
</svg>
