<svg width="82" height="37" viewBox="0 0 82 37" fill="none" xmlns="http://www.w3.org/2000/svg">
<g clip-path="url(#clip0_8100_68638)">
<path d="M26.2731 15.8074C26.5709 15.7304 26.881 15.6791 27.1911 15.6406C27.5136 15.6021 27.8857 15.5893 28.3198 15.5893C28.8533 15.5893 29.2998 15.6534 29.6595 15.7817C30.0193 15.91 30.2921 16.0768 30.4781 16.2949C30.6642 16.513 30.8007 16.7568 30.8876 17.0262C30.9744 17.2956 30.9992 17.5779 30.9992 17.8601C30.9992 17.95 30.9992 18.0398 30.9867 18.1168C30.9744 18.1936 30.962 18.2836 30.9496 18.3734L29.7835 25.4811C29.7464 25.7377 29.7091 25.9815 29.6844 26.2381C29.6471 26.4946 29.6348 26.7383 29.6348 26.9949C29.6348 27.2516 29.6471 27.4825 29.6595 27.7263C29.6719 27.9571 29.7215 28.1882 29.7835 28.4318C29.4859 28.573 29.1262 28.7013 28.6919 28.8169C28.2578 28.9322 27.7617 28.9964 27.2035 28.9964C26.2111 28.9964 25.5165 28.8169 25.1197 28.4448C24.7227 28.0727 24.5242 27.521 24.5489 26.764C24.5489 26.6742 24.5489 26.5715 24.5489 26.4689C24.5489 26.3663 24.5614 26.2636 24.5738 26.1738L26.2731 15.8074ZM26.6825 12.0354C26.6825 11.535 26.757 11.0988 26.9182 10.7396C27.0795 10.3804 27.278 10.0853 27.5385 9.84152C27.7988 9.59775 28.0966 9.41812 28.4439 9.30266C28.7913 9.18719 29.1509 9.12305 29.5355 9.12305C29.8951 9.12305 30.2301 9.18719 30.5279 9.31549C30.8255 9.44379 31.0612 9.61057 31.2597 9.81584C31.4457 10.0211 31.5946 10.2521 31.7062 10.5215C31.8054 10.7781 31.8674 11.0347 31.8674 11.2913C31.8674 11.7916 31.7931 12.2279 31.6318 12.5871C31.4706 12.9463 31.2721 13.2414 31.0116 13.4852C30.7511 13.7289 30.4534 13.9086 30.106 14.024C29.7588 14.1395 29.399 14.2036 29.0145 14.2036C28.6299 14.2036 28.2951 14.1395 28.0098 14.0112C27.7245 13.8829 27.4763 13.7161 27.278 13.5108C27.0795 13.3056 26.9306 13.0746 26.8314 12.8052C26.7321 12.5358 26.6825 12.292 26.6825 12.0354Z" fill="#17494D"/>
<path d="M33.9786 11.7142C34.2764 11.6372 34.5865 11.5859 34.8966 11.5474C35.2191 11.5089 35.5912 11.4961 36.0253 11.4961C36.5588 11.4961 37.0053 11.5602 37.3526 11.6885C37.7 11.8168 37.9729 11.9836 38.1712 12.2017C38.3697 12.4198 38.5062 12.6636 38.5806 12.933C38.6551 13.2024 38.6798 13.4847 38.6798 13.767C38.6798 13.8568 38.6798 13.9466 38.6675 14.0236C38.6551 14.1005 38.6426 14.1904 38.6302 14.2802L38.3697 15.871H42.0662L41.446 19.8868H37.7247L37.1541 23.4663C37.0798 23.8768 37.1294 24.1848 37.303 24.3644C37.4643 24.5567 37.7 24.6467 37.9976 24.6467C38.3077 24.6467 38.5931 24.544 38.8287 24.3387C39.0768 24.1334 39.2877 23.864 39.4737 23.5432C40.2179 23.7614 40.7638 24.0693 41.111 24.467C41.4584 24.8648 41.5949 25.4165 41.5329 26.122C41.4831 26.5198 41.3715 26.8404 41.2104 27.0972C41.049 27.3538 40.8383 27.5974 40.6025 27.854C39.7218 28.6752 38.5186 29.0858 37.0178 29.0858C36.3107 29.0858 35.6532 29.0088 35.0455 28.842C34.4376 28.6752 33.9042 28.4186 33.4576 28.0465C33.0112 27.6744 32.6514 27.2125 32.4033 26.6353C32.1553 26.0579 32.0312 25.3522 32.0312 24.5055C32.0312 24.2489 32.0437 24.0051 32.0684 23.7614C32.0933 23.5176 32.1304 23.261 32.1553 22.966L33.9786 11.7142Z" fill="#17494D"/>
<path d="M50.9035 23.4898C51.5981 23.631 52.144 23.8876 52.5532 24.2725C52.9626 24.6446 53.1611 25.1577 53.1611 25.7735C53.1611 26.4151 52.8882 27.0051 52.33 27.544C52.0571 27.8135 51.7346 28.0444 51.3872 28.2497C51.04 28.442 50.6803 28.6088 50.2958 28.7244C49.9112 28.8399 49.5267 28.9297 49.1544 28.9809C48.7701 29.0322 48.4227 29.0579 48.0877 29.0579C47.083 29.0579 46.2148 28.9039 45.4828 28.6088C44.7511 28.3138 44.1556 27.9033 43.6719 27.4029C43.2005 26.8898 42.8408 26.2996 42.605 25.6196C42.3694 24.9396 42.2578 24.2212 42.2578 23.4642C42.2578 22.3736 42.419 21.3216 42.7539 20.3337C43.0889 19.333 43.5602 18.4734 44.1805 17.7421C44.8007 17.0108 45.5822 16.4206 46.5 15.9844C47.418 15.5482 48.4722 15.3301 49.6507 15.3301C50.2584 15.3301 50.891 15.4327 51.5361 15.6252C52.1811 15.8176 52.7268 16.1512 53.1611 16.6002C53.4215 16.8697 53.6199 17.1647 53.7688 17.4983C53.9178 17.8319 53.992 18.1783 53.992 18.5375C53.992 19.2174 53.7317 19.7563 53.2231 20.1412C52.7146 20.5261 52.0818 20.7699 51.3376 20.8597C51.1764 20.2824 50.9655 19.8591 50.6926 19.564C50.4198 19.2817 50.0475 19.1276 49.5763 19.1276C49.2413 19.1276 48.9437 19.2304 48.6583 19.4357C48.3731 19.6408 48.125 19.9359 47.9141 20.308C47.7032 20.6801 47.542 21.1292 47.418 21.6424C47.2939 22.1556 47.2319 22.72 47.2319 23.323C47.2319 23.8619 47.3435 24.311 47.5667 24.6831C47.7901 25.055 48.1622 25.2347 48.6583 25.2347C49.2166 25.2347 49.6754 25.055 50.0353 24.7086C50.4074 24.3365 50.6926 23.9389 50.9035 23.4898Z" fill="#17494D"/>
<path d="M66.1295 25.3758C66.0923 25.6452 66.0674 25.9147 66.0426 26.1968C66.0179 26.4792 66.0054 26.7485 66.0054 27.018C66.0054 27.6595 66.055 28.1855 66.1666 28.5833C65.869 28.6731 65.534 28.7501 65.1619 28.8271C64.7898 28.9039 64.3806 28.9297 63.9463 28.9297C63.2145 28.9297 62.6564 28.8399 62.2718 28.6603C61.8873 28.4805 61.5648 28.0829 61.3167 27.4799C60.8081 28.0701 60.3118 28.4805 59.791 28.6988C59.2824 28.9169 58.6374 29.0322 57.8808 29.0322C57.3598 29.0322 56.8759 28.9297 56.4293 28.7116C55.9828 28.4935 55.586 28.1855 55.251 27.775C54.9161 27.3644 54.6433 26.8385 54.4571 26.2098C54.271 25.5811 54.1719 24.8499 54.1719 24.0287C54.1719 22.8868 54.3455 21.7835 54.6929 20.7314C55.0401 19.6793 55.5487 18.7555 56.231 17.9602C56.9132 17.1647 57.7443 16.5232 58.7241 16.0485C59.7166 15.5738 60.8453 15.3301 62.1354 15.3301C63.0409 15.3301 63.9091 15.4199 64.7649 15.6123C65.6209 15.8048 66.5389 16.2153 67.5187 16.8312L66.1295 25.3758ZM62.0981 19.6793C61.912 19.551 61.6764 19.487 61.391 19.487C61.0066 19.487 60.6717 19.628 60.3863 19.8974C60.1011 20.1797 59.8653 20.5133 59.6792 20.911C59.4932 21.3088 59.3567 21.7577 59.2576 22.2326C59.1584 22.72 59.1087 23.1562 59.1087 23.5412C59.1087 24.0929 59.208 24.4905 59.394 24.7471C59.5801 24.9909 59.8406 25.1192 60.1755 25.1192C60.5723 25.1192 60.8577 24.9909 61.0313 24.7343C61.2049 24.4778 61.3167 24.1954 61.3663 23.8876L62.0981 19.6793Z" fill="#17494D"/>
<path d="M69.7259 15.8078C70.0236 15.7309 70.3212 15.6795 70.619 15.6411C70.9167 15.6026 71.2888 15.5897 71.7229 15.5897C72.5044 15.5897 73.1123 15.7052 73.5464 15.949C73.9805 16.1927 74.241 16.5135 74.3277 16.9369C74.638 16.5648 75.0845 16.1927 75.6674 15.8463C76.2504 15.4999 77.0071 15.3203 77.9499 15.3203C78.5081 15.3203 78.9793 15.4101 79.3763 15.6026C79.7733 15.795 80.0958 16.0516 80.3563 16.3852C80.6044 16.7187 80.7904 17.1036 80.9144 17.527C81.0385 17.9632 81.1005 18.4123 81.1005 18.8999C81.1005 19.2976 81.0756 19.6697 81.026 20.0288C80.9764 20.3881 80.9144 20.7601 80.84 21.1322L80.1329 25.4687C80.0958 25.7253 80.0585 25.9691 80.0338 26.2257C79.9965 26.4823 79.9842 26.7261 79.9842 26.9827C79.9842 27.2392 79.9965 27.4701 80.0089 27.7139C80.0213 27.9448 80.0709 28.1758 80.1454 28.4196C79.8477 28.5607 79.4879 28.689 79.0538 28.8045C78.6197 28.9198 78.1235 28.9841 77.5654 28.9841C76.5729 28.9841 75.8783 28.8045 75.4814 28.4324C75.0846 28.0603 74.8861 27.5086 74.9108 26.7516C74.9108 26.6618 74.9108 26.5593 74.9108 26.4565C74.9108 26.354 74.9232 26.2512 74.9356 26.1615L75.8163 20.7858C75.8287 20.696 75.8412 20.5934 75.8535 20.4907C75.8659 20.3881 75.8659 20.2854 75.8659 20.1956C75.8659 19.9775 75.8163 19.8107 75.7172 19.6824C75.6178 19.5541 75.4318 19.4899 75.1588 19.4899C74.762 19.4899 74.4766 19.6182 74.3155 19.875C74.1541 20.1315 74.0425 20.4137 73.993 20.7217L72.6904 28.6632H67.6172L69.7259 15.8078Z" fill="#17494D"/>
<path d="M8.16194 24.5314C9.48918 18.2319 12.5902 12.6253 16.9069 8.30169C16.0882 7.89112 15.1703 7.6602 14.1903 7.6602H6.2517C2.79094 7.64737 0 10.5469 0 14.1136V15.3196C3.58481 17.398 6.46257 20.6311 8.16194 24.5314Z" fill="#17494D"/>
<path d="M0 19.7832V22.3235C0 25.8903 2.79093 28.777 6.2393 28.777H7.35566C5.84236 25.0691 3.26229 21.9258 0 19.7832Z" fill="#17494D"/>
<path d="M9.46094 28.79H14.1869C17.6353 28.79 20.4262 25.9034 20.4262 22.3367V14.998C15.6506 18.4493 11.8177 23.2475 9.46094 28.79Z" fill="#17494D"/>
</g>
<defs>
<clipPath id="clip0_8100_68638">
<rect width="81.0984" height="35.9491" fill="white" transform="translate(0 0.851562)"/>
</clipPath>
</defs>
</svg>
