<svg width="172" height="30" viewBox="0 0 172 30" fill="none" xmlns="http://www.w3.org/2000/svg">
<path d="M29.4603 24.0124C29.0354 23.6495 28.3288 23.0773 28.2265 22.9802C28.1957 22.9546 28.1855 22.9342 28.206 22.9086C28.5336 22.4896 28.805 22.1421 29.0917 21.7896C29.1429 21.7283 29.1942 21.7589 29.2556 21.8151C29.5781 22.0962 30.3001 22.6736 30.4024 22.786C30.428 22.8167 30.428 22.8269 30.387 22.8831C30.2846 23.021 29.7522 23.7467 29.5423 24.0226C29.5218 24.0481 29.4962 24.0328 29.4603 24.0124Z" fill="#17494D"/>
<path d="M22.4682 14.7976C22.0432 14.4347 21.3418 13.8624 21.2343 13.7654C21.2036 13.7398 21.1933 13.7194 21.2137 13.6938C21.5415 13.2748 21.8128 12.9273 22.0995 12.5748C22.1507 12.5134 22.2019 12.5441 22.2634 12.6003C22.5859 12.8814 23.3078 13.4588 23.4102 13.5712C23.4358 13.6019 23.4358 13.612 23.3949 13.6682C23.2925 13.8062 22.76 14.5319 22.5501 14.8078C22.5296 14.8333 22.504 14.818 22.4682 14.7976Z" fill="#17494D"/>
<path d="M13.9526 25.2741C13.5276 24.9113 12.8261 24.339 12.7186 24.2419C12.6879 24.2164 12.6777 24.1959 12.6981 24.1704C13.0259 23.7514 13.2971 23.4039 13.5839 23.0513C13.6351 22.99 13.6863 23.0207 13.7477 23.0769C14.0703 23.3579 14.7922 23.9353 14.8946 24.0478C14.9202 24.0784 14.9202 24.0886 14.8793 24.1448C14.7768 24.2828 14.2444 25.0084 14.0345 25.2843C14.0139 25.3099 13.9883 25.2997 13.9526 25.2741Z" fill="#17494D"/>
<path d="M16.2025 25.1569C15.7776 24.7941 15.0762 24.2218 14.9687 24.1248C14.9379 24.0992 14.9277 24.0787 14.9481 24.0532C15.2758 23.6342 15.5472 23.2867 15.8339 22.9341C15.8851 22.8728 15.9363 22.9035 15.9978 22.9597C16.3203 23.2407 17.0422 23.8181 17.1446 23.9305C17.1702 23.9612 17.1702 23.9714 17.1292 24.0276C17.0269 24.1656 16.4944 24.8913 16.2845 25.1672C16.264 25.1927 16.2384 25.1825 16.2025 25.1569Z" fill="#17494D"/>
<path d="M38.4957 15.473C38.465 15.4526 38.3421 15.381 37.9018 15.3709C30.1913 15.1562 29.4437 12.8261 27.1142 12.7035C24.8614 12.586 23.4893 14.8906 23.0592 16.2395C23.0542 16.26 23.0286 16.2651 23.0131 16.2447C22.45 15.4935 21.4977 15.008 20.7092 14.4153C19.6033 13.5773 18.8558 12.8516 18.82 12.08C18.82 12.0647 18.8302 12.0545 18.8456 12.0545C19.2142 12.0188 19.588 11.9931 19.9566 11.9931C21.3339 11.983 24.0065 12.3355 24.1344 12.3611C24.1754 12.3662 24.2317 12.2692 24.2317 12.2692L25.0304 10.9099C25.0304 10.9099 25.0509 10.869 25.0355 10.8587C25.0048 10.8383 24.8768 10.7924 24.4416 10.7566C22.4653 10.6033 20.0693 10.3887 18.8302 10.1025C16.47 9.56089 15.0057 8.4469 13.2598 8.33958C10.5156 8.17097 9.14853 11.8654 9.11784 12.2743C9.10758 12.3867 9.25094 12.3764 9.2868 12.3202C9.61955 11.8092 10.5769 9.93896 12.6761 9.94922C13.823 9.95431 15.9836 10.8843 16.5928 11.007C16.6236 11.0121 16.6236 11.0632 16.5928 11.0734C15.9631 11.2676 12.3536 12.4173 11.1555 13.378C10.8125 13.6539 10.4746 14.6044 10.3619 14.9774C10.3466 15.0285 10.4029 15.0745 10.449 15.0438C10.4797 15.0285 10.5156 15.003 10.5514 14.9825C10.5462 14.9876 10.5462 14.9979 10.5412 15.003C11.4576 15.4526 13.3315 15.6571 14.2326 15.8358C15.0722 15.9994 15.2975 16.4184 15.3333 16.5104C15.3384 16.5206 15.3333 16.5308 15.3231 16.5411C14.4579 17.2002 10.7613 19.2749 8.10919 19.3361C8.07335 19.3361 8.03752 19.3361 8.00167 19.3361C7.97608 19.3361 7.96072 19.3106 7.97096 19.2902C8.17575 18.7127 8.48806 18.0638 8.92327 17.3433C9.13318 17.0009 9.22534 16.725 9.17413 16.6892C9.07689 16.6126 8.82086 17.006 8.69798 17.1952C8.22183 17.9361 7.8788 18.6361 7.64329 19.2902C7.63816 19.3106 7.61768 19.3209 7.5972 19.3209C5.91788 19.1778 4.67887 18.1507 4.37167 16.5002C4.13616 15.2176 4.62255 13.8787 4.87343 13.3525C5.00142 13.0663 5.16526 12.7085 5.0731 12.6319C5.00654 12.5706 4.77102 12.8415 4.56624 13.2605C3.68561 15.0489 3.73681 16.5973 3.73681 16.5973C3.68561 18.2017 4.428 20.6648 7.22857 20.9356C7.25417 20.9356 7.26953 20.9611 7.26953 20.9816C7.12105 23.0357 8.24231 24.2775 9.51714 24.2366C9.97281 24.2213 10.4131 24.0169 10.7971 23.7154C11.0429 23.5263 12.7939 21.8145 13.3213 21.3904C14.2838 20.4757 17.5554 19.5916 18.5742 19.1931C18.605 19.1778 18.6408 19.2136 18.6254 19.2442C18.4463 19.6478 18.2568 20.2049 18.134 20.7721C17.9598 21.5386 17.4735 25.6419 20.9959 25.4426C22.1684 25.3761 23.4535 24.7119 24.4058 24.1293C26.0186 23.1431 27.8105 21.3904 28.1177 20.8232C28.3788 20.3428 28.6041 19.4844 28.6757 18.9325C28.6809 18.9069 28.6809 18.8865 28.6809 18.8609C28.6809 18.8507 28.686 18.8405 28.6962 18.8405C28.9215 18.7485 29.2134 18.6259 29.5615 18.4675C31.0207 17.8032 32.8536 16.7454 34.8452 16.7761C34.9886 16.7863 35.1319 16.7914 35.265 16.8016C35.2958 16.8016 35.3214 16.8067 35.3521 16.8067C37.1748 16.9191 37.4871 16.9549 37.5946 16.9753C37.6356 16.9805 37.6918 16.8834 37.6918 16.8834L38.4906 15.5241C38.4906 15.5191 38.511 15.4782 38.4957 15.473ZM20.5147 16.1833C20.5147 16.1629 20.5403 16.1475 20.5556 16.1629C20.658 16.2498 20.9294 16.4797 21.2315 16.7097C21.5233 16.9294 22.9722 17.8645 22.834 18.5646C22.752 18.9785 21.2621 18.3347 20.1461 17.8799C20.1307 17.8748 20.1255 17.8594 20.1358 17.8441C20.4941 17.1287 20.5198 16.3929 20.5147 16.1833ZM18.9275 14.8906C19.5931 15.0336 20.0334 16.2242 19.9874 16.5308C19.9515 16.7659 19.4344 17.4251 18.9429 17.4711H18.9377C18.4155 17.4097 17.2636 16.8629 17.3506 16.3468C17.4581 15.7285 18.5691 14.8138 18.9275 14.8906ZM13.2854 19.9187C12.0925 20.7465 10.664 22.581 9.3943 22.7547C8.44199 22.8825 7.65352 22.2898 7.63304 21.0072C7.63304 20.9867 7.65352 20.9662 7.674 20.9662C7.76616 20.9662 7.86343 20.9662 7.96072 20.9611C10.1469 20.8845 13.4134 19.0092 14.1302 18.5288C14.8418 18.0536 15.3128 17.7266 15.5689 17.3586C15.7225 17.144 16.0399 16.4388 16.0399 15.7592C16.0757 14.4613 14.719 14.3234 14.0636 14.2109C13.9203 14.1853 13.1932 14.0934 12.5635 13.9759C12.5379 13.9707 12.5327 13.9401 12.5583 13.9298C14.1046 13.2043 16.2754 12.3713 18.5128 12.0851C18.5333 12.0851 18.5486 12.1005 18.5384 12.1209C18.3899 12.4889 18.3336 13.1123 18.4258 13.7408C18.4258 13.751 18.4258 13.7561 18.4155 13.7612C17.5861 14.4613 17.1458 15.2585 16.9103 16.0198C16.6901 16.725 16.7362 17.4659 16.9307 17.9718C16.9666 18.0638 17.0178 18.1455 17.0843 18.2273C17.0946 18.2427 17.0946 18.258 17.0741 18.2682C16.6901 18.4113 14.5193 19.0654 13.2854 19.9187ZM28.4402 17.42C28.4198 17.4251 28.3993 17.42 28.3942 17.3995C28.2508 17.0776 27.4777 15.5241 26.2848 15.5599C25.4144 15.5906 24.4979 16.536 24.3085 17.6652C24.1446 18.6412 24.5133 19.1675 24.9588 19.4435C25.7267 19.9239 27.3651 19.3361 27.8208 19.1982C27.831 19.1931 27.8464 19.1982 27.8514 19.2084C27.9282 19.3464 28.0256 19.5406 28.0665 19.7041C28.0767 19.745 28.0613 19.7859 28.0357 19.8165C27.6211 20.2202 24.4211 23.1533 21.9073 23.6643C19.3319 24.1855 18.4052 22.5657 18.5435 20.9662C18.564 20.7517 18.5998 20.4144 18.6562 20.21C18.6971 19.9953 18.8046 19.6377 18.9326 19.2851C18.9429 19.2595 18.9736 19.2442 18.9992 19.2544C20.3662 19.7501 21.8305 20.5524 22.3988 20.1691C23.3101 19.5508 23.8323 17.6499 23.1923 16.495C23.1873 16.4849 23.1873 16.4746 23.1923 16.4695C23.6532 15.8512 24.7233 14.3387 26.3155 14.2824C27.8822 14.2314 29.7407 15.611 31.4969 16.0709C31.5378 16.0812 31.5429 16.1374 31.5019 16.1527C31.0565 16.3468 29.6588 16.9754 28.4402 17.42ZM26.8787 17.8645C26.8889 17.8748 26.8838 17.89 26.8685 17.8952C26.7354 17.9156 26.2233 17.982 25.7933 17.9514C25.5219 17.931 25.3581 17.8696 25.2044 17.7418C25.1687 17.7112 25.1687 17.6652 25.1891 17.6294C25.2762 17.4915 25.5321 17.1798 25.8343 17.1798C26.2745 17.1746 26.7763 17.7368 26.8787 17.8645Z" fill="#17494D"/>
<path d="M20.6027 29.0487C15.3088 29.0487 10.3322 27.5873 6.58962 24.925C4.76694 23.6322 3.33338 22.1248 2.335 20.4436C1.30078 18.7011 0.773438 16.8513 0.773438 14.9453C0.773438 13.0393 1.30078 11.1895 2.335 9.44691C3.33338 7.76581 4.76694 6.25832 6.58962 4.96553C10.3322 2.30835 15.3088 0.841797 20.6027 0.841797C25.8967 0.841797 30.8733 2.30324 34.6158 4.96553C36.4385 6.25832 37.8721 7.76581 38.8705 9.44691C39.9098 11.1895 40.432 13.0393 40.432 14.9453C40.432 16.8513 39.9047 18.7011 38.8705 20.4436C37.8721 22.1248 36.4385 23.6322 34.6158 24.925C30.8733 27.5822 25.8967 29.0487 20.6027 29.0487ZM20.6027 1.00021C15.3395 1.00021 10.3989 2.45143 6.67666 5.09328C2.96986 7.72486 0.927035 11.2253 0.927035 14.9453C0.927035 18.6653 2.96986 22.1656 6.68178 24.7973C10.3989 27.4391 15.3447 28.8903 20.6079 28.8903C25.8711 28.8903 30.8118 27.4391 34.5339 24.7973C38.2458 22.1656 40.2887 18.6653 40.2887 14.9453C40.2887 11.2253 38.2407 7.72486 34.5289 5.09328C30.8118 2.45143 25.866 1.00021 20.6027 1.00021Z" fill="#17494D"/>
<path d="M20.6024 29.8517C15.1139 29.8517 9.9479 28.3085 6.06194 25.5083C4.16247 24.1439 2.67258 22.5496 1.63325 20.7713C0.547827 18.9317 0 16.9695 0 14.946C0 12.9224 0.547827 10.9602 1.63325 9.1155C2.6777 7.34242 4.16759 5.74808 6.06194 4.37861C9.9479 1.57836 15.1139 0.0351562 20.6024 0.0351562C26.0909 0.0351562 31.2569 1.57836 35.1429 4.37861C37.0424 5.74297 38.5323 7.33725 39.5715 9.1155C40.657 10.9602 41.2049 12.9224 41.2049 14.946C41.2049 16.9695 40.657 18.9317 39.5715 20.7764C38.5271 22.5496 37.0372 24.1439 35.1429 25.5134C31.2569 28.3136 26.0961 29.8517 20.6024 29.8517ZM20.6024 0.500162C9.4974 0.500162 0.460789 6.9796 0.460789 14.946C0.460789 22.9124 9.4974 29.3918 20.6024 29.3918C31.7075 29.3918 40.744 22.9124 40.744 14.946C40.7492 6.9796 31.7125 0.500162 20.6024 0.500162Z" fill="#17494D"/>
<path d="M20.393 21.2775C20.4032 21.2469 20.4134 21.2315 20.4186 21.2162C20.4339 21.1958 20.5773 21.1753 20.6695 21.2775C20.7513 21.3695 20.7923 21.5279 20.7872 21.7017C20.7719 21.8703 20.7411 22.0236 20.6745 22.2024C20.6029 22.4017 20.562 22.5039 20.5056 22.6623C20.4749 22.739 20.3674 23.02 20.3725 23.1325C20.3725 23.1477 20.4134 23.0711 20.4186 23.0609C20.5568 22.7798 20.6182 22.6163 20.7769 22.2944C20.9357 21.9674 21.0534 21.6659 21.0637 21.2928C21.079 21.0629 20.9408 20.6899 20.7053 20.6797C20.5824 20.6797 20.439 20.833 20.3469 21.0527C20.2598 21.2571 20.2086 21.5483 20.2035 21.7221C20.1933 21.763 20.3878 21.2979 20.393 21.2775Z" fill="#17494D"/>
<path d="M16.5781 21.8297C16.5679 21.8603 16.5576 21.8756 16.5525 21.8909C16.5371 21.9114 16.3938 21.9318 16.3016 21.8297C16.2197 21.7377 16.1788 21.5792 16.1839 21.4055C16.1992 21.2368 16.23 21.0836 16.2965 20.9047C16.3682 20.7054 16.4091 20.6033 16.4655 20.4448C16.4962 20.3682 16.6037 20.0871 16.5986 19.9747C16.5986 19.9593 16.5576 20.0361 16.5525 20.0462C16.4143 20.3273 16.3528 20.4908 16.1941 20.8127C16.0354 21.1398 15.9177 21.4412 15.9074 21.8143C15.8921 22.0442 16.0302 22.4173 16.2658 22.4275C16.3887 22.4275 16.532 22.2742 16.6242 22.0545C16.7113 21.8501 16.7624 21.5588 16.7676 21.385C16.7778 21.3442 16.5833 21.8091 16.5781 21.8297Z" fill="#17494D"/>
<path d="M24.3308 21.4409C24.3205 21.4716 24.3103 21.4868 24.3052 21.5022C24.2899 21.5226 24.1465 21.5431 24.0543 21.4409C23.9724 21.3489 23.9314 21.1905 23.9366 21.0168C23.9519 20.8482 23.9826 20.6948 24.0492 20.5159C24.1209 20.3167 24.1618 20.2145 24.2181 20.0561C24.2489 19.9794 24.3564 19.6984 24.3564 19.586C24.3564 19.5707 24.3155 19.6473 24.3103 19.6576C24.1721 19.9386 24.1106 20.1021 23.9519 20.424C23.7932 20.751 23.6754 21.0526 23.6652 21.4255C23.6499 21.6555 23.7881 22.0285 24.0236 22.0388C24.1465 22.0388 24.2899 21.8854 24.382 21.6657C24.469 21.4613 24.5202 21.17 24.5254 20.9964C24.5305 20.9554 24.3359 21.4205 24.3308 21.4409Z" fill="#17494D"/>
<path d="M6.26561 16.3979C6.25538 16.4286 6.24514 16.444 6.24002 16.4593C6.22466 16.4797 6.0813 16.5002 5.98914 16.3979C5.90723 16.3059 5.86626 16.1476 5.87138 15.9738C5.88675 15.8052 5.91746 15.6519 5.98403 15.4731C6.0557 15.2738 6.09666 15.1715 6.15298 15.0132C6.1837 14.9365 6.29122 14.6554 6.2861 14.543C6.2861 14.5277 6.24514 14.6043 6.24002 14.6146C6.10178 14.8956 6.04034 15.0591 5.88163 15.3811C5.72291 15.7081 5.60515 16.0096 5.59491 16.3827C5.57955 16.6126 5.71778 16.9856 5.9533 16.9958C6.07618 16.9958 6.21954 16.8426 6.3117 16.6228C6.39874 16.4184 6.44994 16.1272 6.45506 15.9534C6.4653 15.9125 6.27073 16.3827 6.26561 16.3979Z" fill="#17494D"/>
<path d="M11.4375 17.5171C11.4273 17.5478 11.417 17.5631 11.4119 17.5784C11.3966 17.5989 11.2532 17.6193 11.1611 17.5171C11.0791 17.4251 11.0382 17.2666 11.0433 17.093C11.0587 16.9243 11.0894 16.771 11.1559 16.5922C11.2276 16.3929 11.2686 16.2907 11.3249 16.1322C11.3556 16.0556 11.4631 15.7746 11.458 15.6622C11.458 15.6468 11.417 15.7235 11.4119 15.7337C11.2737 16.0147 11.2123 16.1783 11.0535 16.5002C10.8948 16.8272 10.777 17.1287 10.7668 17.5017C10.7514 17.7317 10.8897 18.1047 11.1252 18.115C11.2481 18.115 11.3914 17.9616 11.4836 17.7419C11.5706 17.5375 11.6218 17.2462 11.6269 17.0725C11.6372 17.0367 11.4478 17.5017 11.4375 17.5171Z" fill="#17494D"/>
<path d="M33.8667 21.3037C33.836 21.3803 33.8258 21.4161 33.8002 21.4519C33.7592 21.503 33.4265 21.5489 33.2217 21.3138C33.0322 21.0993 32.94 20.7314 32.9452 20.3328C32.9759 19.9444 33.0527 19.5867 33.2063 19.1779C33.3753 18.7231 33.4623 18.4779 33.6005 18.11C33.6671 17.9311 33.9179 17.2821 33.9129 17.0215C33.9129 16.9807 33.8207 17.1646 33.8104 17.1901C33.4981 17.8442 33.3445 18.2224 32.9862 18.9633C32.6226 19.7145 32.3513 20.4197 32.3308 21.273C32.295 21.7993 32.6175 22.6629 33.1602 22.6833C33.4469 22.6885 33.7746 22.3308 33.9845 21.8198C34.1842 21.3394 34.3071 20.67 34.3173 20.2715C34.3276 20.1846 33.8822 21.2628 33.8667 21.3037Z" fill="#17494D"/>
<path d="M30.3029 19.6569C30.3182 19.616 30.3285 19.5956 30.3388 19.5751C30.3644 19.5445 30.5487 19.524 30.6664 19.6518C30.7739 19.7744 30.8251 19.9788 30.82 20.2036C30.7995 20.4234 30.7586 20.6227 30.6715 20.8526C30.5743 21.1081 30.5282 21.2461 30.4513 21.4555C30.4156 21.5578 30.2722 21.9206 30.2773 22.0688C30.2773 22.0943 30.3285 21.9871 30.3336 21.9717C30.5128 21.6038 30.5947 21.3892 30.7995 20.9752C31.0044 20.5511 31.158 20.1577 31.1681 19.6722C31.1887 19.3758 31.0043 18.8904 30.7023 18.8751C30.5384 18.8699 30.3541 19.0743 30.2364 19.3605C30.1237 19.6313 30.0571 20.0094 30.0469 20.2291C30.0469 20.2854 30.2978 19.6825 30.3029 19.6569Z" fill="#17494D"/>
<path d="M6.04895 11.4245C6.01823 11.491 6.00287 11.5216 5.97727 11.5523C5.93631 11.5982 5.63424 11.6034 5.4704 11.3734C5.31681 11.1639 5.26561 10.8215 5.31168 10.4639C5.37824 10.1164 5.47553 9.79953 5.6496 9.44696C5.84415 9.05354 5.94143 8.8389 6.10014 8.52202C6.17694 8.36875 6.45854 7.80155 6.47902 7.57165C6.48414 7.53587 6.38686 7.69422 6.3715 7.71465C6.02847 8.27678 5.85951 8.59874 5.4704 9.23749C5.07617 9.88133 4.76898 10.4894 4.6717 11.261C4.5949 11.7311 4.80482 12.5385 5.2912 12.6049C5.5472 12.6356 5.87488 12.3392 6.11039 11.8997C6.33054 11.4858 6.4995 10.8931 6.54558 10.5353C6.56094 10.4587 6.06431 11.3887 6.04895 11.4245Z" fill="#17494D"/>
<path d="M17.7713 5.98263C17.7509 6.02862 17.7457 6.05417 17.7303 6.07461C17.7047 6.11038 17.4948 6.13592 17.3668 5.98774C17.244 5.84977 17.1877 5.61983 17.1928 5.36432C17.2133 5.11905 17.2593 4.89421 17.3617 4.6336C17.4692 4.34745 17.5256 4.18903 17.6126 3.95909C17.6535 3.84667 17.8123 3.43276 17.8123 3.26925C17.8123 3.2437 17.756 3.36122 17.7509 3.37656C17.5512 3.79046 17.4539 4.03063 17.2286 4.50075C16.9982 4.97597 16.8242 5.42054 16.8139 5.96219C16.7934 6.29437 16.9982 6.84106 17.3361 6.8564C17.5204 6.86158 17.7253 6.63159 17.8584 6.30963C17.9813 6.00818 18.0632 5.58405 18.0683 5.32856C18.0632 5.27746 17.7765 5.95708 17.7713 5.98263Z" fill="#17494D"/>
<path d="M11.5995 7.23066C11.579 7.27669 11.5739 7.30221 11.5585 7.32264C11.5329 7.35841 11.323 7.38401 11.195 7.23574C11.0721 7.09782 11.0158 6.86784 11.0209 6.61234C11.0414 6.36709 11.0874 6.14226 11.1899 5.88165C11.2974 5.59549 11.3537 5.43708 11.4407 5.20714C11.4817 5.09472 11.6404 4.68082 11.6404 4.51729C11.6404 4.49174 11.5841 4.60928 11.579 4.6246C11.3793 5.03851 11.282 5.27868 11.0568 5.74879C10.8263 6.224 10.6523 6.66854 10.642 7.21023C10.6216 7.54237 10.8263 8.08914 11.1643 8.10449C11.3486 8.10957 11.5534 7.87967 11.6865 7.55771C11.8094 7.25626 11.8913 6.83206 11.8964 6.57656C11.8913 6.52036 11.6097 7.20514 11.5995 7.23066Z" fill="#17494D"/>
<path d="M33.0738 12.4884C33.0482 12.5496 33.038 12.5803 33.0175 12.611C32.9817 12.657 32.7052 12.6927 32.5311 12.4934C32.3724 12.3095 32.2905 12.0029 32.3007 11.6656C32.3263 11.3386 32.3929 11.0372 32.5209 10.6897C32.6643 10.3064 32.7359 10.102 32.8537 9.79024C32.91 9.64206 33.1199 9.0902 33.1199 8.87047C33.1199 8.8347 33.0431 8.99314 33.0329 9.01357C32.7666 9.56543 32.6387 9.88231 32.3365 10.5108C32.0294 11.1444 31.7989 11.7372 31.7836 12.4577C31.7529 12.9022 32.0243 13.6279 32.4799 13.6483C32.7206 13.6534 32.997 13.3468 33.1762 12.9176C33.3452 12.5139 33.4476 11.9467 33.4578 11.6145C33.4578 11.5481 33.0841 12.4577 33.0738 12.4884Z" fill="#17494D"/>
<path d="M8.53615 14.3392V14.3342C8.59759 13.8282 8.50031 13.3735 8.43375 13.0107C8.33136 12.4435 8.06512 11.7843 7.81424 11.1302C7.41489 10.1133 7.4661 10.0469 7.47122 10.0367C7.49169 10.0009 7.63505 9.81693 7.96784 9.71987C8.26992 9.62789 8.58223 9.59212 8.58735 9.58703C8.66927 9.50014 8.74095 9.17818 8.73071 9.14758C8.69487 9.06068 8.28016 8.5446 7.99857 8.52417C7.70161 8.50374 7.57361 8.91759 7.51218 9.15775C7.49681 9.20887 7.48657 9.32645 7.49169 9.33153C7.49681 9.34687 7.53266 9.31619 7.55313 9.2855C7.66065 9.11689 7.71185 8.94319 7.84497 8.95845C7.99345 8.97897 8.21872 9.15775 8.25968 9.22929C7.89616 9.3111 7.76305 9.37239 7.61457 9.47971C7.53778 9.53591 7.4405 9.66875 7.3893 9.79142C7.33298 9.91917 7.3125 10.0623 7.3125 10.2871C7.3125 10.3841 7.32274 10.5171 7.35346 10.655C7.3893 10.7981 8.04976 12.4537 8.19824 13.0209C8.37231 13.6699 8.42351 14.0889 8.42863 14.3546C8.43375 14.5078 8.36207 14.794 8.36207 14.794C8.35695 14.7991 8.36207 14.8094 8.36207 14.8145C8.4696 15.0495 8.5464 15.3204 8.58223 15.581C8.60783 15.9131 8.48495 16.2095 8.2136 16.1993C7.9832 16.1942 7.86545 15.9387 7.87057 15.6576C7.87569 15.2386 7.8808 14.7787 7.72209 14.6152C7.70161 14.5947 7.65041 14.5947 7.63505 14.6152C7.54801 14.7429 7.40977 15.2131 7.43538 15.2539C7.45074 15.2846 7.50705 15.0445 7.57361 15.1926C7.66065 15.3868 7.64529 15.7241 7.64017 15.8518C7.62993 16.1175 7.62993 16.6899 8.10096 16.6847C8.4696 16.6796 8.63343 16.2913 8.66415 15.8467C8.69999 16.0358 8.80751 16.5263 9.31439 16.5468C9.4168 16.5468 9.4987 16.511 9.5499 16.4752C9.65231 16.4088 9.7086 16.3372 9.7905 16.1278C9.86222 15.9335 9.87248 15.6985 9.85705 15.5656C9.81101 15.167 9.47818 14.7378 9.39629 14.2677C9.39629 14.2523 9.38603 14.2422 9.38094 14.2524C9.31948 14.3904 9.21707 14.6254 9.21707 14.7481C9.25293 15.0904 9.62671 15.6985 9.66257 15.9489C9.60111 16.0153 9.47818 16.0613 9.29387 16.0153C9.13009 15.9745 9.02767 15.862 8.96113 15.6832C8.89458 15.4993 8.84337 15.1977 8.80242 14.978C8.71023 14.6101 8.57711 14.4006 8.53615 14.3392Z" fill="#17494D"/>
<path d="M9.0559 6.62282C8.974 6.46955 8.83573 6.31111 8.71287 6.2856C8.56439 6.25491 8.42616 6.38775 8.30328 6.64833C8.21624 6.83229 8.19065 6.96004 8.1548 7.15425C8.10361 7.4557 8.11897 7.64991 8.05753 7.95653C8.05753 7.96162 8.05241 7.96162 8.05241 7.95653C8.0012 7.70103 7.74521 6.66876 7.05403 6.56662C6.82363 6.53084 6.82363 7.04693 6.92092 7.1696C6.99259 7.25649 7.00795 7.17977 7.35098 7.44044C7.3561 7.44553 7.36634 7.44044 7.37146 7.44044C7.38682 7.41484 7.41242 7.36889 7.42266 7.33312C7.55578 7.47622 7.62746 7.63965 7.70938 7.84412C7.77081 7.9923 7.83737 8.25289 7.86298 8.35513C7.88857 8.46753 7.91417 8.55951 7.93977 8.5646C8.01657 8.57485 8.13432 8.21712 8.15992 8.09963C8.21624 7.78792 8.23672 7.51707 8.27256 7.22071C8.27768 7.1696 8.29816 7.06736 8.31864 7.00607C8.334 6.96004 8.4364 6.73014 8.58488 6.75057C8.72311 6.771 8.83065 6.91918 8.91762 7.05719C8.92788 7.07245 8.93814 7.05719 8.94323 7.04693C8.98935 6.95495 9.04055 6.75057 9.0559 6.65859C9.06098 6.64325 9.06098 6.63299 9.0559 6.62282Z" fill="#17494D"/>
<path d="M27.6064 3.61364C27.5757 3.60852 27.4067 3.65963 27.2941 3.7005C23.275 5.16706 18.8053 7.08838 17.94 7.66584C17.8172 7.74756 17.725 7.8242 17.6533 7.906C17.5407 8.03375 17.2488 8.62139 17.1875 8.82577C17.1875 8.82577 17.167 8.88198 17.1926 8.89732C17.2232 8.91266 17.3257 8.77983 17.341 8.76957C17.9708 8.03375 24.3245 5.47876 27.1661 4.38012C27.1712 4.38012 27.1814 4.36991 27.1866 4.3648C27.2685 4.24727 27.5449 3.77715 27.6115 3.66474C27.6167 3.63919 27.632 3.61364 27.6064 3.61364Z" fill="#17494D"/>
<path d="M34.7743 7.26207C34.7435 7.25699 34.5746 7.30802 34.462 7.34896C30.4429 8.81551 26.946 10.3536 26.0807 10.931C25.9578 11.0128 25.8657 11.0894 25.7939 11.1711C25.6814 11.2989 25.3895 11.8865 25.3281 12.091C25.3281 12.091 25.3076 12.1472 25.3332 12.1625C25.3639 12.1778 25.4663 12.045 25.4817 12.0296C26.1114 11.2938 31.4924 9.12204 34.334 8.0234C34.339 8.0234 34.3493 8.01323 34.3544 8.00815C34.4364 7.89057 34.7128 7.42042 34.7794 7.30802C34.7845 7.28759 34.7999 7.26716 34.7743 7.26207Z" fill="#17494D"/>
<path d="M21.6147 3.27118C21.5174 3.09744 21.3638 2.91859 21.2255 2.88793C21.0617 2.85217 20.8979 3.00547 20.7597 3.29673C20.6573 3.50624 20.6317 3.65443 20.5907 3.86904C20.5343 4.21141 20.5498 4.43625 20.4832 4.77862C20.4832 4.78373 20.478 4.78373 20.478 4.77862C20.4166 4.49246 20.1299 3.31717 19.3465 3.19964C19.0803 3.15876 19.0854 3.74129 19.1981 3.88437C19.2749 3.98657 19.2953 3.89459 19.6845 4.19097C19.6947 4.19608 19.705 4.19608 19.7101 4.19097C19.7306 4.16542 19.7562 4.11432 19.7715 4.06833C19.9251 4.23185 20.0019 4.41581 20.0992 4.64575C20.1709 4.81438 20.2476 5.10565 20.2732 5.22318C20.304 5.35093 20.3296 5.45313 20.3603 5.45824C20.4474 5.46846 20.5855 5.06477 20.6061 4.93192C20.6726 4.57933 20.6931 4.26762 20.7341 3.93547C20.7392 3.87415 20.7648 3.76684 20.7904 3.69019C20.8057 3.6391 20.9235 3.37849 21.0924 3.39893C21.246 3.41937 21.3741 3.5931 21.4713 3.7464C21.4816 3.76174 21.4918 3.7464 21.4969 3.73619C21.5481 3.63399 21.6044 3.40404 21.6249 3.29673C21.6198 3.29673 21.6198 3.2814 21.6147 3.27118Z" fill="#17494D"/>
<path d="M30.8215 6.16191C30.7396 6.00861 30.6014 5.8502 30.4785 5.82465C30.33 5.79399 30.1918 5.92685 30.0689 6.18743C29.9819 6.37139 29.9563 6.49914 29.9204 6.69335C29.8692 6.9948 29.8846 7.18901 29.8231 7.49563C29.8231 7.50071 29.818 7.50071 29.818 7.49563C29.7668 7.24013 29.5109 6.20786 28.8197 6.1057C28.5893 6.06993 28.5893 6.58603 28.6865 6.70869C28.7582 6.7955 28.7736 6.71887 29.1166 6.97954C29.1218 6.98463 29.132 6.97954 29.1371 6.97954C29.1524 6.95394 29.178 6.91308 29.1883 6.87222C29.3214 7.01523 29.393 7.17875 29.475 7.38322C29.5364 7.5314 29.603 7.79199 29.6286 7.89414C29.6541 8.00663 29.6798 8.09861 29.7054 8.1037C29.7822 8.11387 29.8999 7.75622 29.9255 7.63872C29.9819 7.32693 30.0023 7.05617 30.0382 6.75981C30.0433 6.70869 30.0638 6.60646 30.0842 6.54517C30.0997 6.49914 30.202 6.26924 30.3505 6.28967C30.4887 6.3101 30.5963 6.45828 30.6833 6.59629C30.6935 6.61154 30.7038 6.59629 30.7089 6.58603C30.755 6.49405 30.8062 6.28967 30.8215 6.19769C30.8215 6.18235 30.8215 6.17213 30.8215 6.16191Z" fill="#17494D"/>
<path d="M37.0872 18.2927C37.0052 18.1395 36.867 17.981 36.7441 17.9555C36.5956 17.9248 36.4573 18.0577 36.3345 18.3183C36.2474 18.5023 36.2218 18.6301 36.1861 18.8242C36.1349 19.1257 36.1502 19.3198 36.0887 19.6265C36.0887 19.6315 36.0837 19.6315 36.0837 19.6265C36.0324 19.371 35.7764 18.3388 35.0852 18.2365C34.8549 18.2008 34.8549 18.7169 34.9521 18.8395C35.0239 18.9264 35.0392 18.8498 35.3822 19.1104C35.3873 19.1155 35.3976 19.1104 35.4027 19.1104C35.4181 19.0848 35.4437 19.0439 35.4539 19.003C35.587 19.1461 35.6587 19.3097 35.7406 19.514C35.802 19.6622 35.8686 19.9228 35.8942 20.025C35.9198 20.1375 35.9454 20.2294 35.971 20.2345C36.0478 20.2448 36.1655 19.887 36.1911 19.7695C36.2474 19.4578 36.268 19.187 36.3038 18.8906C36.3089 18.8395 36.3294 18.7374 36.3499 18.676C36.3652 18.63 36.4676 18.4001 36.6161 18.4205C36.7543 18.4409 36.8618 18.5891 36.9489 18.7271C36.9591 18.7425 36.9694 18.7271 36.9745 18.7169C37.0205 18.6249 37.0717 18.4205 37.0872 18.3285C37.0872 18.3132 37.0872 18.303 37.0872 18.2927Z" fill="#17494D"/>
<path d="M15.56 4.5622C15.4627 4.38846 15.3091 4.20961 15.1708 4.17895C15.0071 4.14318 14.8432 4.29648 14.705 4.58775C14.6026 4.79725 14.577 4.94544 14.536 5.16006C14.4797 5.50243 14.4951 5.72727 14.4285 6.06963C14.4285 6.07474 14.4234 6.07474 14.4234 6.06963C14.3619 5.78348 14.0752 4.60819 13.2918 4.49066C13.0256 4.44977 13.0307 5.03231 13.1434 5.17539C13.2202 5.27759 13.2406 5.18561 13.6298 5.48199C13.64 5.4871 13.6503 5.4871 13.6554 5.48199C13.6759 5.45644 13.7015 5.40534 13.7168 5.35935C13.8704 5.52286 13.9473 5.70683 14.0445 5.93677C14.1162 6.1054 14.1929 6.39666 14.2185 6.51416C14.2493 6.64191 14.2749 6.74414 14.3056 6.74923C14.3927 6.75949 14.5309 6.3558 14.5514 6.22297C14.6179 5.87034 14.6384 5.55864 14.6794 5.22649C14.6845 5.16517 14.7101 5.05786 14.7357 4.98121C14.751 4.93012 14.8688 4.6695 15.0377 4.68994C15.1914 4.71039 15.3194 4.88413 15.4166 5.03742C15.4269 5.05275 15.4371 5.03742 15.4422 5.0272C15.4934 4.925 15.5497 4.69505 15.5702 4.58775C15.56 4.58775 15.56 4.57241 15.56 4.5622Z" fill="#17494D"/>
<path d="M35.9402 13.726C35.9299 13.7567 35.9197 13.772 35.9146 13.7873C35.8992 13.8078 35.7559 13.8282 35.6637 13.726C35.5818 13.6341 35.5409 13.4756 35.546 13.3019C35.5613 13.1333 35.5921 12.98 35.6586 12.8011C35.7303 12.6019 35.7712 12.4997 35.8276 12.3412C35.8583 12.2646 35.9658 11.9836 35.9658 11.8712C35.9658 11.8558 35.9248 11.9325 35.9198 11.9427C35.7815 12.2237 35.72 12.3873 35.5613 12.7091C35.4026 13.0362 35.2849 13.3377 35.2746 13.7107C35.2592 13.9407 35.3975 14.3137 35.633 14.3239C35.7559 14.3239 35.8992 14.1706 35.9914 13.9509C36.0785 13.7465 36.1297 13.4552 36.1347 13.2815C36.1398 13.2406 35.9454 13.7056 35.9402 13.726Z" fill="#17494D"/>
<path d="M22.2657 8.9155C22.2554 8.94619 22.2451 8.96154 22.2401 8.97679C22.2247 8.99731 22.0814 9.01774 21.9891 8.9155C21.9072 8.82353 21.8663 8.66509 21.8714 8.49139C21.8868 8.32278 21.9175 8.16943 21.984 7.99065C22.0558 7.79135 22.0967 7.68911 22.153 7.53076C22.1837 7.45404 22.2913 7.17302 22.2861 7.06062C22.2861 7.04527 22.2451 7.12191 22.2401 7.13216C22.1018 7.41318 22.0403 7.57671 21.8816 7.89867C21.7229 8.22563 21.6052 8.52716 21.5949 8.90016C21.5796 9.13014 21.7178 9.50314 21.9533 9.5134C22.0762 9.5134 22.2195 9.36004 22.3117 9.14032C22.3988 8.93593 22.45 8.64466 22.4551 8.47096C22.4653 8.4301 22.2707 8.90016 22.2657 8.9155Z" fill="#17494D"/>
<path d="M29.7187 12.146C29.7085 12.1767 29.6983 12.192 29.6931 12.2073C29.6778 12.2278 29.5344 12.2482 29.4422 12.146C29.3604 12.054 29.3194 11.8956 29.3245 11.7219C29.3398 11.5532 29.3706 11.3999 29.4372 11.2211C29.5088 11.0218 29.5497 10.9196 29.6061 10.7611C29.6368 10.6845 29.7443 10.4035 29.7392 10.2911C29.7392 10.2757 29.6983 10.3524 29.6931 10.3626C29.5549 10.6437 29.4934 10.8072 29.3347 11.1291C29.176 11.4561 29.0583 11.7576 29.048 12.1306C29.0327 12.3606 29.1709 12.7336 29.4064 12.7439C29.5293 12.7439 29.6727 12.5905 29.7648 12.3708C29.8519 12.1664 29.903 11.8751 29.9082 11.7014C29.9184 11.6657 29.729 12.1306 29.7187 12.146Z" fill="#17494D"/>
<path d="M36.9387 10.2752C36.8568 10.1219 36.7186 9.96352 36.5957 9.93792C36.4472 9.90732 36.309 10.0402 36.1861 10.3007C36.0991 10.4847 36.0735 10.6124 36.0376 10.8067C35.9864 11.1081 36.0018 11.3023 35.9404 11.6089C35.9404 11.614 35.9352 11.614 35.9352 11.6089C35.884 11.3534 35.6281 10.3212 34.9369 10.219C34.7065 10.1833 34.7065 10.6993 34.8037 10.822C34.8754 10.9088 34.8908 10.8322 35.2338 11.0928C35.2389 11.0979 35.2492 11.0928 35.2543 11.0928C35.2696 11.0672 35.2952 11.0264 35.3055 10.9855C35.4386 11.1285 35.5103 11.2921 35.5922 11.4965C35.6537 11.6447 35.7202 11.9053 35.7458 12.0074C35.7714 12.1199 35.797 12.2119 35.8226 12.217C35.8993 12.2272 36.0171 11.8695 36.0427 11.7519C36.0991 11.4402 36.1195 11.1695 36.1554 10.873C36.1605 10.822 36.181 10.7198 36.2015 10.6585C36.2168 10.6124 36.3193 10.3825 36.4677 10.403C36.606 10.4234 36.7135 10.5716 36.8004 10.7096C36.8107 10.7249 36.821 10.7096 36.826 10.6993C36.8722 10.6074 36.9234 10.403 36.9387 10.311C36.9438 10.2957 36.9438 10.2854 36.9387 10.2752Z" fill="#17494D"/>
<path d="M26.3785 8.21118C26.399 8.21627 26.4041 8.24178 26.3888 8.25204C26.2506 8.33884 25.8051 8.59952 24.8989 9.0338C24.7095 9.12578 24.0183 9.49886 24.0337 9.51929C24.0439 9.53463 24.3204 9.458 24.4688 9.42223C25.1293 9.25353 25.8973 9.13095 25.9639 9.09518C26.3274 8.91122 26.7882 8.3491 26.8547 8.25713C27.2899 7.66949 27.423 7.32201 27.4435 7.2096C27.4486 7.17383 27.4332 7.14823 27.4332 7.14314C27.3974 7.10228 27.3411 7.0716 27.2233 7.03582C26.6295 6.8723 24.9808 6.89281 24.7761 7.04608C24.7761 7.04608 24.6019 7.09203 24.0183 8.34402C23.9978 8.37979 24.1002 8.33884 24.1002 8.33884C24.1002 8.33884 24.2589 8.28264 24.5047 8.24178C24.7249 8.21118 25.9127 8.15489 26.3785 8.21118Z" fill="#17494D"/>
<path d="M55.5981 20.4344C55.5981 21.7414 55.4917 22.7825 55.2789 23.5576C55.0661 24.3478 54.7014 24.9861 54.1847 25.4725C53.6832 25.974 52.9613 26.4224 52.019 26.8175L51.9962 26.8403C51.9506 26.8403 51.9126 26.8024 51.8822 26.7263C51.8518 26.6656 51.8518 26.62 51.8822 26.5896C52.6421 26.1488 53.174 25.4801 53.478 24.5834C53.782 23.6867 53.9339 22.5089 53.9339 21.0499V9.56021C53.9339 9.10427 53.8807 8.76995 53.7743 8.55715C53.6832 8.34435 53.5008 8.20002 53.2272 8.124C52.9688 8.03282 52.5585 7.98722 51.9962 7.98722C51.9658 7.98722 51.9506 7.94163 51.9506 7.85044C51.9506 7.75925 51.9658 7.71366 51.9962 7.71366L53.25 7.73645C53.8883 7.76688 54.3822 7.78205 54.7318 7.78205C55.1422 7.78205 55.6361 7.76688 56.2136 7.73645L57.2395 7.71366C57.2699 7.71366 57.2851 7.75925 57.2851 7.85044C57.2851 7.94163 57.2699 7.98722 57.2395 7.98722C56.7531 7.98722 56.396 8.03282 56.168 8.124C55.9401 8.21519 55.7881 8.37477 55.7121 8.60274C55.6361 8.81554 55.5981 9.14987 55.5981 9.60581V20.4344ZM74.2288 21.6882C74.2895 21.6882 74.32 21.7338 74.32 21.825C74.32 21.9162 74.2895 21.9618 74.2288 21.9618C73.94 21.9618 73.4916 21.9466 72.8837 21.9162C72.2759 21.8858 71.8275 21.8706 71.5387 21.8706C71.1891 21.8706 70.756 21.8858 70.2393 21.9162C69.7529 21.9466 69.373 21.9618 69.0994 21.9618C69.0387 21.9618 69.0083 21.9162 69.0083 21.825C69.0083 21.7338 69.0387 21.6882 69.0994 21.6882C69.6466 21.6882 70.0341 21.6426 70.2621 21.5514C70.5052 21.4451 70.6268 21.2627 70.6268 21.0043C70.6268 20.7763 70.5205 20.4344 70.3077 19.9784L68.3471 15.875H62.8987L61.5536 18.9982C61.3561 19.4541 61.2573 19.8721 61.2573 20.252C61.2573 21.2095 61.9944 21.6882 63.4686 21.6882C63.5446 21.6882 63.5826 21.7338 63.5826 21.825C63.5826 21.9162 63.5446 21.9618 63.4686 21.9618C63.195 21.9618 62.7999 21.9466 62.2831 21.9162C61.7056 21.8858 61.2041 21.8706 60.7785 21.8706C60.3986 21.8706 59.9351 21.8858 59.3879 21.9162C58.932 21.9466 58.5444 21.9618 58.2253 21.9618C58.1493 21.9618 58.1113 21.9162 58.1113 21.825C58.1113 21.7338 58.1493 21.6882 58.2253 21.6882C58.6508 21.6882 59.008 21.6122 59.2967 21.4602C59.6007 21.293 59.8895 21.0043 60.163 20.594C60.4366 20.1836 60.7406 19.5833 61.0749 18.793L65.8851 7.53128C65.9155 7.48569 65.9763 7.46289 66.0674 7.46289C66.1586 7.46289 66.2119 7.48569 66.227 7.53128L71.6527 18.8386C72.1694 19.948 72.6102 20.7003 72.9749 21.0955C73.3397 21.4907 73.7577 21.6882 74.2288 21.6882ZM63.1038 15.3962H68.1192L65.4747 9.87937L63.1038 15.3962ZM93.6752 7.71366C93.7208 7.71366 93.7436 7.75925 93.7436 7.85044C93.7436 7.94163 93.7208 7.98722 93.6752 7.98722C92.5959 7.98722 91.798 8.64071 91.2815 9.94776L86.5397 21.939C86.5245 21.9997 86.4408 22.0302 86.2889 22.0302C86.1673 22.0302 86.0837 21.9997 86.0381 21.939L83.0745 15.533L80.5441 21.939C80.5289 21.9997 80.4452 22.0302 80.2933 22.0302C80.1717 22.0302 80.0881 21.9997 80.0425 21.939L74.3661 9.60581C74.0773 8.98266 73.7962 8.55715 73.5226 8.32918C73.2642 8.10121 72.9071 7.98722 72.4511 7.98722C72.4055 7.98722 72.3827 7.94163 72.3827 7.85044C72.3827 7.75925 72.4055 7.71366 72.4511 7.71366L73.2262 7.73645C73.6517 7.76688 74.009 7.78205 74.2977 7.78205C74.9208 7.78205 75.5667 7.76688 76.2354 7.73645C76.4634 7.72129 76.7598 7.71366 77.1245 7.71366C77.1701 7.71366 77.1929 7.75925 77.1929 7.85044C77.1929 7.94163 77.1701 7.98722 77.1245 7.98722C76.6837 7.98722 76.357 8.04044 76.1442 8.1468C75.9467 8.23799 75.8479 8.4052 75.8479 8.64833C75.8479 8.8763 75.9391 9.19546 76.1214 9.60581L80.8404 19.7277L82.7782 14.8719L80.3389 9.60581C80.0805 9.02825 79.8146 8.61791 79.541 8.37477C79.2674 8.11638 78.9331 7.98722 78.5379 7.98722C78.4923 7.98722 78.4695 7.94163 78.4695 7.85044C78.4695 7.75925 78.4923 7.71366 78.5379 7.71366L79.313 7.73645C79.6778 7.76688 80.0046 7.78205 80.2933 7.78205C80.81 7.78205 81.3115 7.76688 81.7979 7.73645C81.9498 7.72129 82.155 7.71366 82.4134 7.71366C82.459 7.71366 82.4818 7.75925 82.4818 7.85044C82.4818 7.94163 82.459 7.98722 82.4134 7.98722C82.1398 7.98722 81.9423 8.01765 81.8207 8.07841C81.7143 8.124 81.6611 8.21519 81.6611 8.35197C81.6611 8.51918 81.8055 8.93707 82.0943 9.60581L83.6444 12.9342L84.8755 9.83378C85.073 9.37784 85.1718 8.99792 85.1718 8.69393C85.1718 8.22282 84.8679 7.98722 84.26 7.98722C84.2295 7.98722 84.2144 7.94163 84.2144 7.85044C84.2144 7.75925 84.2295 7.71366 84.26 7.71366L84.7615 7.73645C85.0351 7.76688 85.3694 7.78205 85.7646 7.78205C86.0533 7.78205 86.3953 7.76688 86.7904 7.73645L87.7024 7.71366C87.7331 7.71366 87.748 7.75925 87.748 7.85044C87.748 7.94163 87.7331 7.98722 87.7024 7.98722C87.2008 7.98722 86.76 8.13917 86.3801 8.44316C86.0002 8.73189 85.6734 9.23343 85.3998 9.94776L83.9408 13.5725L86.836 19.7277L90.7344 9.90217C90.8563 9.56784 90.9168 9.27902 90.9168 9.03588C90.9168 8.3368 90.3697 7.98722 89.2754 7.98722C89.2298 7.98722 89.207 7.94163 89.207 7.85044C89.207 7.75925 89.2298 7.71366 89.2754 7.71366L90.2557 7.73645C90.7721 7.76688 91.2359 7.78205 91.6463 7.78205C91.9654 7.78205 92.3223 7.76688 92.7177 7.73645L93.6752 7.71366ZM110.084 21.6882C110.129 21.6882 110.152 21.7338 110.152 21.825C110.152 21.9162 110.129 21.9618 110.084 21.9618C109.597 21.9618 109.217 21.9541 108.944 21.939L107.325 21.9162L105.57 21.939C105.311 21.9541 104.954 21.9618 104.499 21.9618C104.453 21.9618 104.43 21.9162 104.43 21.825C104.43 21.7338 104.453 21.6882 104.499 21.6882C105.091 21.6882 105.516 21.6502 105.775 21.5742C106.049 21.4982 106.231 21.3539 106.322 21.1411C106.428 20.9131 106.482 20.5712 106.482 20.1152V14.8035H97.9786V20.1152C97.9786 20.5712 98.0242 20.9131 98.1154 21.1411C98.2215 21.3539 98.4038 21.4982 98.6625 21.5742C98.9361 21.6502 99.3692 21.6882 99.9619 21.6882C99.9917 21.6882 100.008 21.7338 100.008 21.825C100.008 21.9162 99.9917 21.9618 99.9619 21.9618C99.4753 21.9618 99.0956 21.9541 98.8221 21.939L97.1123 21.9162L95.5165 21.939C95.2429 21.9541 94.8554 21.9618 94.3539 21.9618C94.3232 21.9618 94.3083 21.9162 94.3083 21.825C94.3083 21.7338 94.3232 21.6882 94.3539 21.6882C94.9308 21.6882 95.349 21.6502 95.6077 21.5742C95.8813 21.4982 96.0636 21.3539 96.1548 21.1411C96.2609 20.9131 96.3144 20.5712 96.3144 20.1152V9.56021C96.3144 9.10427 96.2609 8.76995 96.1548 8.55715C96.0636 8.34435 95.8813 8.20002 95.6077 8.124C95.349 8.03282 94.9387 7.98722 94.3767 7.98722C94.346 7.98722 94.3311 7.94163 94.3311 7.85044C94.3311 7.75925 94.346 7.71366 94.3767 7.71366L95.5393 7.73645C96.1776 7.76688 96.702 7.78205 97.1123 7.78205C97.5682 7.78205 98.1452 7.76688 98.8449 7.73645L99.9619 7.71366C99.9917 7.71366 100.008 7.75925 100.008 7.85044C100.008 7.94163 99.9917 7.98722 99.9619 7.98722C99.3841 7.98722 98.9589 8.03282 98.6853 8.124C98.4117 8.21519 98.2215 8.37477 98.1154 8.60274C98.0242 8.81554 97.9786 9.14987 97.9786 9.60581V14.302H106.482V9.60581C106.482 9.14987 106.428 8.81554 106.322 8.60274C106.231 8.37477 106.049 8.21519 105.775 8.124C105.502 8.03282 105.075 7.98722 104.499 7.98722C104.453 7.98722 104.43 7.94163 104.43 7.85044C104.43 7.75925 104.453 7.71366 104.499 7.71366L105.57 7.73645C106.238 7.76688 106.824 7.78205 107.325 7.78205C107.736 7.78205 108.275 7.76688 108.944 7.73645L110.084 7.71366C110.129 7.71366 110.152 7.75925 110.152 7.85044C110.152 7.94163 110.129 7.98722 110.084 7.98722C109.506 7.98722 109.081 8.03282 108.807 8.124C108.548 8.20002 108.366 8.34435 108.26 8.55715C108.169 8.76995 108.123 9.10427 108.123 9.56021V20.1152C108.123 20.5712 108.169 20.9131 108.26 21.1411C108.366 21.3539 108.548 21.4982 108.807 21.5742C109.081 21.6502 109.506 21.6882 110.084 21.6882ZM126.903 21.6882C126.963 21.6882 126.994 21.7338 126.994 21.825C126.994 21.9162 126.963 21.9618 126.903 21.9618C126.613 21.9618 126.165 21.9466 125.558 21.9162C124.949 21.8858 124.501 21.8706 124.213 21.8706C123.863 21.8706 123.43 21.8858 122.913 21.9162C122.427 21.9466 122.047 21.9618 121.773 21.9618C121.712 21.9618 121.682 21.9162 121.682 21.825C121.682 21.7338 121.712 21.6882 121.773 21.6882C122.321 21.6882 122.708 21.6426 122.936 21.5514C123.179 21.4451 123.301 21.2627 123.301 21.0043C123.301 20.7763 123.194 20.4344 122.982 19.9784L121.021 15.875H115.573L114.228 18.9982C114.029 19.4541 113.931 19.8721 113.931 20.252C113.931 21.2095 114.668 21.6882 116.143 21.6882C116.218 21.6882 116.257 21.7338 116.257 21.825C116.257 21.9162 116.218 21.9618 116.143 21.9618C115.869 21.9618 115.474 21.9466 114.957 21.9162C114.379 21.8858 113.878 21.8706 113.452 21.8706C113.072 21.8706 112.609 21.8858 112.062 21.9162C111.606 21.9466 111.218 21.9618 110.899 21.9618C110.823 21.9618 110.785 21.9162 110.785 21.825C110.785 21.7338 110.823 21.6882 110.899 21.6882C111.324 21.6882 111.681 21.6122 111.971 21.4602C112.274 21.293 112.563 21.0043 112.837 20.594C113.111 20.1836 113.414 19.5833 113.749 18.793L118.559 7.53128C118.589 7.48569 118.65 7.46289 118.741 7.46289C118.833 7.46289 118.885 7.48569 118.901 7.53128L124.327 18.8386C124.843 19.948 125.284 20.7003 125.649 21.0955C126.014 21.4907 126.431 21.6882 126.903 21.6882ZM115.778 15.3962H120.793L118.149 9.87937L115.778 15.3962ZM142.612 21.6882C142.657 21.6882 142.68 21.7338 142.68 21.825C142.68 21.9162 142.657 21.9618 142.612 21.9618H139.488C139.124 21.9618 138.432 21.3463 137.414 20.1152C136.411 18.869 135.18 17.1364 133.721 14.9175C133.31 14.9935 132.931 15.0315 132.581 15.0315C132.505 15.0315 132.148 15.0087 131.509 14.9631V20.1152C131.509 20.5863 131.555 20.9283 131.646 21.1411C131.737 21.3539 131.912 21.4982 132.171 21.5742C132.429 21.6502 132.84 21.6882 133.402 21.6882C133.447 21.6882 133.47 21.7338 133.47 21.825C133.47 21.9162 133.447 21.9618 133.402 21.9618C132.915 21.9618 132.543 21.9541 132.285 21.939L130.666 21.9162L129.093 21.939C128.804 21.9541 128.417 21.9618 127.93 21.9618C127.9 21.9618 127.885 21.9162 127.885 21.825C127.885 21.7338 127.9 21.6882 127.93 21.6882C128.492 21.6882 128.903 21.6502 129.161 21.5742C129.42 21.4982 129.594 21.3539 129.686 21.1411C129.792 20.9131 129.845 20.5712 129.845 20.1152V9.56021C129.845 9.10427 129.8 8.76995 129.708 8.55715C129.617 8.34435 129.443 8.20002 129.184 8.124C128.925 8.03282 128.523 7.98722 127.976 7.98722C127.93 7.98722 127.908 7.94163 127.908 7.85044C127.908 7.75925 127.93 7.71366 127.976 7.71366L129.093 7.73645C129.731 7.76688 130.256 7.78205 130.666 7.78205C130.985 7.78205 131.289 7.77442 131.578 7.75925C131.866 7.74408 132.117 7.72883 132.33 7.71366C132.892 7.66806 133.416 7.64527 133.903 7.64527C135.119 7.64527 136.061 7.91883 136.73 8.46596C137.414 8.99792 137.756 9.71979 137.756 10.6317C137.756 11.4524 137.513 12.197 137.026 12.8658C136.555 13.5345 135.924 14.0588 135.134 14.4388C136.411 16.2777 137.474 17.7139 138.326 18.7474C139.192 19.7809 139.959 20.5332 140.628 21.0043C141.312 21.4602 141.973 21.6882 142.612 21.6882ZM131.509 14.416C131.935 14.4616 132.384 14.4844 132.854 14.4844C133.994 14.4844 134.807 14.2336 135.294 13.7321C135.78 13.2154 136.023 12.4175 136.023 11.3384C136.023 10.1378 135.772 9.28665 135.271 8.78512C134.769 8.26841 134.048 8.01002 133.105 8.01002C132.513 8.01002 132.094 8.124 131.851 8.35197C131.623 8.56477 131.509 8.98266 131.509 9.60581V14.416ZM150.702 22.2353C149.015 22.2353 147.548 21.901 146.302 21.2323C145.055 20.5635 144.098 19.6669 143.43 18.5422C142.776 17.4024 142.449 16.1485 142.449 14.7807C142.449 13.3217 142.821 12.0375 143.566 10.928C144.326 9.81861 145.359 8.96749 146.667 8.37477C147.973 7.76688 149.44 7.46289 151.067 7.46289C151.872 7.46289 152.624 7.53891 153.324 7.69086C154.037 7.82764 154.623 8.03282 155.079 8.30638C155.2 8.36714 155.268 8.42036 155.284 8.46596C155.314 8.49638 155.337 8.61037 155.352 8.80791L155.649 11.5663C155.649 11.6119 155.603 11.6424 155.512 11.6575C155.436 11.6727 155.39 11.6575 155.375 11.6119C155.04 10.5025 154.478 9.59818 153.688 8.8991C152.897 8.20002 151.849 7.85044 150.542 7.85044C149.387 7.85044 148.338 8.11638 147.396 8.64833C146.469 9.18029 145.732 9.94776 145.185 10.9508C144.653 11.9539 144.387 13.1165 144.387 14.4388C144.387 15.761 144.653 16.992 145.185 18.1319C145.716 19.2566 146.499 20.1684 147.533 20.8675C148.582 21.5514 149.836 21.8934 151.295 21.8934C152.343 21.8934 153.073 21.6958 153.483 21.3007C153.908 20.8903 154.121 20.1608 154.121 19.1122C154.121 18.3219 154.068 17.7748 153.962 17.4708C153.871 17.1516 153.658 16.9388 153.324 16.8325C153.004 16.7261 152.427 16.6729 151.591 16.6729C151.5 16.6729 151.454 16.6121 151.454 16.4905C151.454 16.4449 151.461 16.4069 151.477 16.3765C151.507 16.3309 151.537 16.3081 151.568 16.3081C152.783 16.3841 153.764 16.4221 154.509 16.4221C155.223 16.4221 155.983 16.3993 156.789 16.3537C156.849 16.3537 156.88 16.4069 156.88 16.5133C156.895 16.6197 156.864 16.6729 156.789 16.6729C156.424 16.6577 156.165 16.7108 156.014 16.8325C155.877 16.9388 155.786 17.1668 155.74 17.5164C155.694 17.8659 155.672 18.4738 155.672 19.3401C155.672 20.024 155.694 20.5104 155.74 20.7991C155.801 21.0879 155.831 21.2702 155.831 21.3463C155.831 21.4374 155.815 21.4982 155.786 21.5286C155.755 21.5591 155.687 21.5894 155.58 21.6198C153.695 22.0302 152.07 22.2353 150.702 22.2353ZM171.715 7.71366C171.746 7.71366 171.761 7.75925 171.761 7.85044C171.761 7.94163 171.746 7.98722 171.715 7.98722C171.184 7.98722 170.621 8.20756 170.028 8.64833C169.452 9.07385 168.934 9.65903 168.478 10.4037L165.537 14.9631V20.1152C165.537 20.5863 165.583 20.9283 165.674 21.1411C165.765 21.3539 165.933 21.4982 166.176 21.5742C166.434 21.6502 166.845 21.6882 167.407 21.6882C167.452 21.6882 167.475 21.7338 167.475 21.825C167.475 21.9162 167.452 21.9618 167.407 21.9618C166.936 21.9618 166.571 21.9541 166.313 21.939L164.694 21.9162L163.121 21.939C162.833 21.9541 162.445 21.9618 161.958 21.9618C161.929 21.9618 161.913 21.9162 161.913 21.825C161.913 21.7338 161.929 21.6882 161.958 21.6882C162.521 21.6882 162.932 21.6502 163.189 21.5742C163.448 21.4982 163.623 21.3539 163.714 21.1411C163.821 20.9131 163.873 20.5712 163.873 20.1152V15.3279L160.18 9.85657C159.724 9.1575 159.307 8.67113 158.926 8.39757C158.547 8.124 158.128 7.98722 157.673 7.98722C157.627 7.98722 157.604 7.94163 157.604 7.85044C157.604 7.75925 157.627 7.71366 157.673 7.71366L158.47 7.73645C158.835 7.76688 159.102 7.78205 159.268 7.78205C159.786 7.78205 160.454 7.76688 161.274 7.73645L162.551 7.71366C162.582 7.71366 162.597 7.75925 162.597 7.85044C162.597 7.94163 162.582 7.98722 162.551 7.98722C161.807 7.98722 161.434 8.16197 161.434 8.51155C161.434 8.6635 161.518 8.86114 161.685 9.10427L165.264 14.416L167.908 10.2669C168.258 9.68937 168.433 9.21826 168.433 8.85351C168.433 8.27595 168.022 7.98722 167.202 7.98722C167.172 7.98722 167.156 7.94163 167.156 7.85044C167.156 7.75925 167.172 7.71366 167.202 7.71366L168.296 7.73645C168.904 7.76688 169.452 7.78205 169.937 7.78205C170.196 7.78205 170.507 7.76688 170.872 7.73645L171.715 7.71366Z" fill="#17494D"/>
</svg>
